g DiceMachine_01_W
v 0.1489728 0.1489616 0.2483539
v 0.06881413 0.02849424 0.2483539
v 0.05267361 0.05265586 0.2483539
v 0.170251 0.1276768 0.2483539
v 0.1811097 0.1358225 0.2392318
v 0.170251 -5.602837E-06 0.2483539
v 0.1811097 -5.602837E-06 0.2392318
v 0.170251 -0.127688 0.2483539
v 0.06881413 -0.02850543 0.2483539
v 0.1811097 -0.1358336 0.2392318
v 0.1489728 -0.1489728 0.2483539
v 0.1584749 -0.1584749 0.2392318
v 0.1584749 0.1584637 0.2392318
v 0.05267361 -0.05267361 0.2483539
v 0.07448264 -5.602837E-06 0.2483539
vt 0.8906497 0.8792579
vt 0.682092 0.5751842
vt 0.643535 0.6338958
vt 0.9397221 0.8293092
vt 0.9809079 0.8599794
vt 0.9397221 0.4989466
vt 0.9809079 0.4989466
vt 0.9397221 0.1685841
vt 0.682092 0.4235854
vt 0.9809079 0.1379139
vt 0.8906497 0.1186354
vt 0.9265777 0.08446
vt 0.9265777 0.9143096
vt 0.643535 0.3648738
vt 0.6978652 0.4989466
vn 0.2106891 0.2053214 0.9557475
vn 0.002683878 -0.002683878 0.9999928
vn 0.002683878 -0.002683878 0.9999928
vn 0.3534378 0.1155936 0.9282887
vn 0.5165792 0.2338711 0.8236809
vn 0.3493592 -0.002683878 0.936985
vn 0.6430137 -0.002683878 0.76585
vn 0.3534378 -0.1168828 0.9281273
vn 0.002683878 -0.002683878 0.9999928
vn 0.5165792 -0.2392388 0.8221379
vn 0.2106891 -0.2106891 0.9545785
vn 0.3983017 -0.3983017 0.8262637
vn 0.3983017 0.3970124 0.8268839
vn 0.002683878 -0.002683878 0.9999928
vn 0.002683878 -0.002683878 0.9999928
g DiceMachine_01_W_0
f 3/3/3 2/2/2 1/1/1
f 4/4/4 1/1/1 2/2/2
f 4/4/4 5/5/5 1/1/1
f 4/4/4 6/6/6 5/5/5
f 6/6/6 4/4/4 2/2/2
f 7/7/7 5/5/5 6/6/6
f 6/6/6 8/8/8 7/7/7
f 8/8/8 6/6/6 9/9/9
f 10/10/10 7/7/7 8/8/8
f 8/8/8 11/11/11 10/10/10
f 8/8/8 9/9/9 11/11/11
f 12/12/12 10/10/10 11/11/11
f 13/13/13 1/1/1 5/5/5
f 14/14/14 11/11/11 9/9/9
f 6/6/6 15/15/15 9/9/9
f 15/15/15 6/6/6 2/2/2
