g DiceMachine_01_N
v -0.1584659 0.1584659 0.239235
v -0.1276817 0.1702421 0.2483542
v -0.1489619 0.1489619 0.2483542
v -0.1358263 0.1810994 0.239235
v 5.617738E-06 0.1810994 0.239235
v 5.617738E-06 0.1702421 0.2483542
v 0.1276929 0.1702421 0.2483542
v 0.1358375 0.1810994 0.239235
v 0.1489731 0.1489619 0.2483542
v 0.158471 0.1584659 0.239235
v 0.0526722 0.05266099 0.2483542
v 0.0285054 0.06880113 0.2483542
v 5.617738E-06 0.07447504 0.2483542
v -0.02849418 0.06880113 0.2483542
v -0.05266099 0.05266099 0.2483542
vt 0.08446 0.9265777
vt 0.1685841 0.9397221
vt 0.1186354 0.8906497
vt 0.1379139 0.9809079
vt 0.4989466 0.9809079
vt 0.4989466 0.9397221
vt 0.8293092 0.9397221
vt 0.8599794 0.9809079
vt 0.8792579 0.8906497
vt 0.9143096 0.9265777
vt 0.6338958 0.643535
vt 0.5751842 0.682092
vt 0.4989466 0.6978652
vt 0.4235854 0.682092
vt 0.3648738 0.643535
vn -0.394223 0.394223 0.8301665
vn -0.1128042 0.3493592 0.9301738
vn -0.2066105 0.2066105 0.9563599
vn -0.2351602 0.5125005 0.8258589
vn 0.001394689 0.6430135 0.7658535
vn 0.001394689 0.3412021 0.9399889
vn 0.1196721 0.3493592 0.9293152
vn 0.2420281 0.5125005 0.8238723
vn 0.2134784 0.2066105 0.9548503
vn 0.3970124 0.394223 0.8288361
vn 0.001394689 -0.001394689 0.999998
vn 0.001394689 -0.001394689 0.999998
vn 0.001394689 -0.001394689 0.999998
vn 0.001394689 -0.001394689 0.999998
vn 0.001394689 -0.001394689 0.999998
g DiceMachine_01_N_0
f 3/3/3 2/2/2 1/1/1
f 4/4/4 1/1/1 2/2/2
f 4/4/4 2/2/2 5/5/5
f 6/6/6 5/5/5 2/2/2
f 6/6/6 7/7/7 5/5/5
f 8/8/8 5/5/5 7/7/7
f 7/7/7 9/9/9 8/8/8
f 10/10/10 8/8/8 9/9/9
f 9/9/9 7/7/7 11/11/11
f 12/12/12 11/11/11 7/7/7
f 7/7/7 6/6/6 12/12/12
f 6/6/6 13/13/13 12/12/12
f 13/13/13 6/6/6 14/14/14
f 6/6/6 2/2/2 14/14/14
f 14/14/14 2/2/2 15/15/15
f 3/3/3 15/15/15 2/2/2
