g Bam_4
v 2.896674 -2.266849 3.624492
v -2.896674 -2.26685 -3.624493
v -2.896669 -2.26685 3.624495
v 2.896669 -2.266849 -3.624496
v 3.252059 -2.168021 3.619548
v 3.252053 -2.168021 -3.619553
v 2.891313 -2.168021 -4.05439
v -2.891318 -2.168022 -4.054387
v 2.891318 -2.168021 4.054386
v -2.891313 -2.168022 4.054389
v -3.252053 -2.168022 3.619552
v -3.252059 -2.168022 -3.619549
v 3.155549 -2.155809 -3.938905
v -3.155555 -2.15581 -3.938901
v -3.155549 -2.155809 3.938904
v 3.155555 -2.155808 3.9389
v -2.896676 2.266818 3.624495
v 2.896669 2.266819 -3.624497
v 2.896674 2.266819 3.624492
v -2.896674 2.266818 -3.624493
v -2.891318 2.16851 -4.054388
v 2.891313 2.168511 -4.05439
v 3.252046 2.168511 -3.619553
v 3.252059 2.168512 3.619548
v -3.252053 2.168511 3.619551
v -3.252059 2.16851 -3.619549
v -2.891321 2.168511 4.054388
v 2.89131 2.168512 4.054386
v 3.155549 2.168427 -3.938905
v -3.155562 2.168426 -3.938901
v -3.155549 2.168427 3.938904
v 3.155562 2.168427 3.938899
v 3.155549 -2.155809 -3.938905
v 2.896669 -1.920851 -4.2142
v 2.891313 -2.168021 -4.05439
v 3.252054 -1.915929 -4.05439
v -2.896674 -1.920852 -4.214198
v -2.891318 -2.168022 -4.054387
v 2.896669 2.032577 -4.214202
v -2.896681 2.032576 -4.214201
v 3.252061 2.032541 -4.05439
v -3.252059 2.032539 -4.054387
v -3.252059 -1.915931 -4.054387
v -3.388411 -1.920852 -3.624493
v -3.155555 -2.15581 -3.938901
v -3.252059 -2.168022 -3.619549
v -3.252053 -2.168022 3.619552
v -3.388406 -1.920852 3.624496
v -3.388411 2.032576 -3.624494
v -3.388406 2.032577 3.624495
v -3.252084 2.03254 4.054389
v -3.252054 -1.91593 4.054389
v -2.896669 -1.920852 4.2142
v -3.155549 -2.155809 3.938904
v -2.891313 -2.168022 4.054389
v 2.891318 -2.168021 4.054386
v 2.896674 -1.920851 4.214197
v -2.896699 2.032576 4.2142
v 2.896666 2.032578 4.214196
v 3.252059 2.032541 4.054386
v 3.252059 -1.915929 4.054386
v -3.155549 2.168427 3.938904
v -3.252053 2.168511 3.619551
v -3.252059 2.16851 -3.619549
v 3.155562 2.168427 3.938899
v 2.89131 2.168512 4.054386
v -2.891321 2.168511 4.054388
v 3.155555 -2.155808 3.9389
v -3.155562 2.168426 -3.938901
v -2.891318 2.16851 -4.054388
v 2.891313 2.168511 -4.05439
v 3.155549 2.168427 -3.938905
v 3.388398 2.032577 -3.624498
v 3.388406 -1.920851 -3.624497
v 3.388411 2.032578 3.624491
v 3.388411 -1.920851 3.624491
v 3.252053 -2.168021 -3.619553
v 3.252059 -2.168021 3.619548
v 3.155555 -2.155808 3.9389
v 3.252059 -1.915929 4.054386
v 3.252059 2.032541 4.054386
v 3.252046 2.168511 -3.619553
v 3.252059 2.168512 3.619548
v 3.155562 2.168427 3.938899
vt 0.2819074 0.01302131
vt 0.3731756 0.127767
vt 0.3734128 0.01321073
vt 0.2816705 0.1275776
vt 0.2760887 0.01303281
vt 0.2758519 0.127542
vt 0.2816114 0.1345367
vt 0.3732059 0.1347262
vt 0.281877 0.006062046
vt 0.3734718 0.006251588
vt 0.3792315 0.01324625
vt 0.3789943 0.1277555
vt 0.2773788 0.1326605
vt 0.3774461 0.1328677
vt 0.3777045 0.008127704
vt 0.2776366 0.007920757
vt 0.4277452 0.973184
vt 0.3311456 0.8521919
vt 0.3311455 0.9731839
vt 0.427745 0.8521921
vt 0.4278137 0.8448412
vt 0.3310767 0.8448412
vt 0.325013 0.8522639
vt 0.3250128 0.9731118
vt 0.4338776 0.973112
vt 0.4338775 0.8522639
vt 0.4278141 0.9805347
vt 0.3310764 0.9805345
vt 0.3265697 0.8468577
vt 0.4323209 0.8468577
vt 0.4323211 0.9785182
vt 0.3265694 0.9785182
vt 0.8399794 0.004132939
vt 0.8366122 0.01009143
vt 0.8366122 0.004132939
vt 0.8399794 0.01009143
vt 0.6962689 0.01009143
vt 0.6962689 0.004132939
vt 0.8366122 0.07906371
vt 0.6962689 0.07906371
vt 0.8399794 0.07906371
vt 0.6925756 0.07906371
vt 0.6925756 0.01009143
vt 0.6883295 0.01009143
vt 0.6925756 0.004132939
vt 0.6883295 0.004132939
vt 0.5457566 0.004132939
vt 0.5457566 0.01009143
vt 0.6883295 0.07906371
vt 0.5457566 0.07906371
vt 0.5417815 0.07906371
vt 0.5417815 0.01009143
vt 0.53834 0.01009143
vt 0.5417815 0.004132939
vt 0.53834 0.004132939
vt 0.3937278 0.004132939
vt 0.3937278 0.01009142
vt 0.53834 0.07906371
vt 0.3937278 0.07906371
vt 0.3904912 0.07906371
vt 0.3904912 0.01009142
vt 0.5417815 0.08502179
vt 0.5457566 0.08502179
vt 0.6883295 0.08502179
vt 0.3904912 0.08502178
vt 0.3937278 0.08502178
vt 0.53834 0.08502179
vt 0.3904912 0.00413294
vt 0.6925756 0.08502179
vt 0.6962689 0.08502179
vt 0.8366122 0.08502179
vt 0.8399794 0.08502179
vt 0.8438554 0.07906371
vt 0.8438554 0.01009143
vt 0.9916103 0.07906371
vt 0.9916103 0.01009143
vt 0.8438554 0.004132939
vt 0.9916103 0.004132939
vt 0.9953361 0.004132939
vt 0.9953361 0.01009143
vt 0.9953361 0.07906371
vt 0.8438554 0.08502179
vt 0.9916103 0.08502179
vt 0.9953361 0.08502179
vn 0.121158 -0.9877809 0.09802827
vn -0.1211576 -0.987781 -0.09802821
vn -0.1211576 -0.987781 0.09802829
vn 0.1211577 -0.9877809 -0.09802829
vn 0.6333644 -0.7663692 0.1073677
vn 0.6333643 -0.7663692 -0.1073676
vn 0.1431698 -0.7928664 -0.5923387
vn -0.1431705 -0.7928664 -0.5923387
vn 0.143171 -0.7928662 0.5923389
vn -0.1431697 -0.7928664 0.5923389
vn -0.633364 -0.7663695 0.1073676
vn -0.6333642 -0.7663693 -0.1073676
vn 0.502875 -0.749941 -0.4297735
vn -0.5028752 -0.7499408 -0.4297734
vn -0.5028749 -0.7499411 0.4297735
vn 0.5028756 -0.7499406 0.4297735
vn -0.1158768 0.9889396 0.09258014
vn 0.1158766 0.9889396 -0.09257999
vn 0.1158734 0.9889401 0.09257936
vn -0.1158744 0.9889399 -0.0925798
vn -0.1028987 0.8781875 -0.4671174
vn 0.1029035 0.8781845 -0.4671219
vn 0.5168083 0.8525374 -0.07803282
vn 0.5168059 0.8525388 0.0780322
vn -0.5168087 0.8525366 0.07803874
vn -0.5168068 0.8525384 -0.07803207
vn -0.1028978 0.8781882 0.4671162
vn 0.1028996 0.8781837 0.4671243
vn 0.3967912 0.8548898 -0.3342459
vn -0.3968049 0.854881 -0.3342518
vn -0.3967685 0.8549047 0.3342344
vn 0.3968013 0.8548813 0.3342555
vn 0.502875 -0.749941 -0.4297735
vn 0.1990526 -0.2720163 -0.9414804
vn 0.1431698 -0.7928664 -0.5923387
vn 0.7175025 -0.2556973 -0.6479267
vn -0.1990539 -0.2720162 -0.94148
vn -0.1431705 -0.7928664 -0.5923387
vn 0.1864508 0.3963826 -0.8989532
vn -0.1864597 0.3963825 -0.8989515
vn 0.6887896 0.3699109 -0.6234861
vn -0.688788 0.3698974 -0.6234956
vn -0.7175032 -0.2556965 -0.6479263
vn -0.9586964 -0.2433228 -0.1472929
vn -0.5028752 -0.7499408 -0.4297734
vn -0.6333642 -0.7663693 -0.1073676
vn -0.633364 -0.7663695 0.1073676
vn -0.9586959 -0.2433248 0.1472922
vn -0.9193037 0.3685285 -0.1380849
vn -0.9193025 0.3685388 0.1380652
vn -0.6887996 0.3699285 0.6234645
vn -0.7175016 -0.2556995 0.6479268
vn -0.1990521 -0.2720168 0.9414803
vn -0.5028749 -0.7499411 0.4297735
vn -0.1431697 -0.7928664 0.5923389
vn 0.143171 -0.7928662 0.5923389
vn 0.1990539 -0.2720158 0.9414802
vn -0.1864579 0.396386 0.8989502
vn 0.1864483 0.3963797 0.8989549
vn 0.68878 0.3698987 0.6235039
vn 0.7175032 -0.2556965 0.6479263
vn -0.3967685 0.8549047 0.3342344
vn -0.5168087 0.8525366 0.07803874
vn -0.5168068 0.8525384 -0.07803207
vn 0.3968013 0.8548813 0.3342555
vn 0.1028996 0.8781837 0.4671243
vn -0.1028978 0.8781882 0.4671162
vn 0.5028756 -0.7499406 0.4297735
vn -0.3968049 0.854881 -0.3342518
vn -0.1028987 0.8781875 -0.4671174
vn 0.1029035 0.8781845 -0.4671219
vn 0.3967912 0.8548898 -0.3342459
vn 0.9193031 0.3685339 -0.1380749
vn 0.9586963 -0.243323 -0.147293
vn 0.9193035 0.3685291 0.1380843
vn 0.9586964 -0.2433228 0.1472929
vn 0.6333643 -0.7663692 -0.1073676
vn 0.6333644 -0.7663692 0.1073677
vn 0.5028756 -0.7499406 0.4297735
vn 0.7175032 -0.2556965 0.6479263
vn 0.68878 0.3698987 0.6235039
vn 0.5168083 0.8525374 -0.07803282
vn 0.5168059 0.8525388 0.0780322
vn 0.3968013 0.8548813 0.3342555
g Bam_4_0
f 3/3/3 2/2/2 1/1/1
f 4/4/4 1/1/1 2/2/2
f 1/1/1 4/4/4 5/5/5
f 6/6/6 5/5/5 4/4/4
f 4/4/4 2/2/2 7/7/7
f 8/8/8 7/7/7 2/2/2
f 1/1/1 9/9/9 3/3/3
f 10/10/10 3/3/3 9/9/9
f 3/3/3 11/11/11 2/2/2
f 12/12/12 2/2/2 11/11/11
f 4/4/4 7/7/7 13/13/13
f 6/6/6 4/4/4 13/13/13
f 2/2/2 12/12/12 14/14/14
f 8/8/8 2/2/2 14/14/14
f 3/3/3 10/10/10 15/15/15
f 11/11/11 3/3/3 15/15/15
f 1/1/1 5/5/5 16/16/16
f 9/9/9 1/1/1 16/16/16
f 19/19/19 18/18/18 17/17/17
f 20/20/20 17/17/17 18/18/18
f 20/20/20 18/18/18 21/21/21
f 22/22/22 21/21/21 18/18/18
f 18/18/18 19/19/19 23/23/23
f 24/24/24 23/23/23 19/19/19
f 17/17/17 20/20/20 25/25/25
f 26/26/26 25/25/25 20/20/20
f 17/17/17 27/27/27 19/19/19
f 28/28/28 19/19/19 27/27/27
f 18/18/18 23/23/23 29/29/29
f 22/22/22 18/18/18 29/29/29
f 20/20/20 21/21/21 30/30/30
f 26/26/26 20/20/20 30/30/30
f 17/17/17 25/25/25 31/31/31
f 27/27/27 17/17/17 31/31/31
f 19/19/19 28/28/28 32/32/32
f 24/24/24 19/19/19 32/32/32
f 35/35/35 34/34/34 33/33/33
f 36/36/36 33/33/33 34/34/34
f 34/34/34 35/35/35 37/37/37
f 38/38/38 37/37/37 35/35/35
f 34/34/34 37/37/37 39/39/39
f 40/40/40 39/39/39 37/37/37
f 39/39/39 41/41/41 34/34/34
f 36/36/36 34/34/34 41/41/41
f 40/40/40 37/37/37 42/42/42
f 43/43/43 42/42/42 37/37/37
f 43/43/43 44/44/44 42/42/42
f 43/43/43 45/45/45 44/44/44
f 43/43/43 37/37/37 45/45/45
f 38/38/38 45/45/45 37/37/37
f 46/46/46 44/44/44 45/45/45
f 46/46/46 47/47/47 44/44/44
f 48/48/48 44/44/44 47/47/47
f 44/44/44 48/48/48 49/49/49
f 49/49/49 42/42/42 44/44/44
f 50/50/50 49/49/49 48/48/48
f 50/50/50 48/48/48 51/51/51
f 52/52/52 51/51/51 48/48/48
f 52/52/52 53/53/53 51/51/51
f 52/52/52 54/54/54 53/53/53
f 52/52/52 48/48/48 54/54/54
f 47/47/47 54/54/54 48/48/48
f 55/55/55 53/53/53 54/54/54
f 55/55/55 56/56/56 53/53/53
f 57/57/57 53/53/53 56/56/56
f 58/58/58 51/51/51 53/53/53
f 53/53/53 57/57/57 58/58/58
f 59/59/59 58/58/58 57/57/57
f 59/59/59 57/57/57 60/60/60
f 61/61/61 60/60/60 57/57/57
f 51/51/51 62/62/62 50/50/50
f 51/51/51 58/58/58 62/62/62
f 63/63/63 50/50/50 62/62/62
f 49/49/49 50/50/50 64/64/64
f 63/63/63 64/64/64 50/50/50
f 60/60/60 65/65/65 59/59/59
f 66/66/66 59/59/59 65/65/65
f 58/58/58 59/59/59 67/67/67
f 66/66/66 67/67/67 59/59/59
f 67/67/67 62/62/62 58/58/58
f 61/61/61 57/57/57 68/68/68
f 56/56/56 68/68/68 57/57/57
f 64/64/64 69/69/69 49/49/49
f 42/42/42 49/49/49 69/69/69
f 42/42/42 69/69/69 40/40/40
f 70/70/70 40/40/40 69/69/69
f 40/40/40 70/70/70 39/39/39
f 71/71/71 39/39/39 70/70/70
f 71/71/71 72/72/72 39/39/39
f 41/41/41 39/39/39 72/72/72
f 41/41/41 72/72/72 73/73/73
f 73/73/73 74/74/74 41/41/41
f 36/36/36 41/41/41 74/74/74
f 73/73/73 75/75/75 74/74/74
f 76/76/76 74/74/74 75/75/75
f 74/74/74 76/76/76 77/77/77
f 78/78/78 77/77/77 76/76/76
f 78/78/78 76/76/76 79/79/79
f 80/80/80 79/79/79 76/76/76
f 75/75/75 81/81/81 76/76/76
f 80/80/80 76/76/76 81/81/81
f 82/82/82 73/73/73 72/72/72
f 75/75/75 73/73/73 83/83/83
f 82/82/82 83/83/83 73/73/73
f 36/36/36 74/74/74 33/33/33
f 77/77/77 33/33/33 74/74/74
f 81/81/81 75/75/75 84/84/84
f 83/83/83 84/84/84 75/75/75
