g Crak_7
v 2.896666 -2.266863 3.624494
v -2.896666 -2.266865 -3.624491
v -2.896669 -2.266864 3.624497
v 2.896669 -2.266864 -3.624495
v 3.252059 -2.168035 3.61955
v 3.252046 -2.168036 -3.619551
v 2.891313 -2.168036 -4.054389
v -2.891325 -2.168036 -4.054386
v 2.891325 -2.168035 4.054388
v -2.891313 -2.168036 4.05439
v -3.252046 -2.168036 3.619553
v -3.252059 -2.168037 -3.619548
v 3.155549 -2.155823 -3.938903
v -3.155547 -2.155824 -3.9389
v -3.155549 -2.155824 3.938905
v 3.155547 -2.155823 3.938902
v -2.896669 2.266804 3.624497
v 2.896669 2.266804 -3.624495
v 2.896666 2.266804 3.624493
v -2.896666 2.266804 -3.624491
v -2.891325 2.168496 -4.054386
v 2.891313 2.168497 -4.054389
v 3.252046 2.168497 -3.619552
v 3.252059 2.168498 3.61955
v -3.252046 2.168496 3.619553
v -3.252059 2.168496 -3.619548
v -2.891313 2.168497 4.05439
v 2.891325 2.168498 4.054387
v 3.155549 2.168413 -3.938904
v -3.155547 2.168411 -3.9389
v -3.155549 2.168412 3.938904
v 3.155547 2.168413 3.938901
v 3.155549 -2.155823 -3.938903
v 2.896669 -1.920865 -4.214199
v 2.891313 -2.168036 -4.054389
v 3.252046 -1.915944 -4.054389
v -2.896666 -1.920866 -4.214196
v -2.891325 -2.168036 -4.054386
v 2.896669 2.032563 -4.214203
v -2.896681 2.032562 -4.214196
v 3.252046 2.032526 -4.05439
v -3.252059 2.032525 -4.054387
v -3.252059 -1.915945 -4.054385
v -3.388411 -1.920866 -3.624491
v -3.155547 -2.155824 -3.9389
v -3.252059 -2.168037 -3.619548
v -3.252046 -2.168036 3.619553
v -3.388398 -1.920866 3.624497
v -3.388411 2.032561 -3.624491
v -3.388398 2.032562 3.624497
v -3.252046 2.032526 4.054391
v -3.252046 -1.915945 4.054391
v -2.896669 -1.920866 4.214201
v -3.155549 -2.155824 3.938905
v -2.891313 -2.168036 4.05439
v 2.891325 -2.168035 4.054388
v 2.896666 -1.920865 4.214198
v -2.896669 2.032562 4.214201
v 2.896666 2.032563 4.214198
v 3.252059 2.032527 4.054388
v 3.252059 -1.915943 4.054388
v -3.155549 2.168412 3.938904
v -3.252046 2.168496 3.619553
v -3.252059 2.168496 -3.619548
v 3.155547 2.168413 3.938901
v 2.891325 2.168498 4.054387
v -2.891313 2.168497 4.05439
v 3.155547 -2.155823 3.938902
v -3.155547 2.168411 -3.9389
v -2.891325 2.168496 -4.054386
v 2.891313 2.168497 -4.054389
v 3.155549 2.168413 -3.938904
v 3.388398 2.032562 -3.624496
v 3.388398 -1.920865 -3.624495
v 3.388411 2.032563 3.624493
v 3.388411 -1.920865 3.624493
v 3.252046 -2.168036 -3.619551
v 3.252059 -2.168035 3.61955
v 3.155547 -2.155823 3.938902
v 3.252059 -1.915943 4.054388
v 3.252059 2.032527 4.054388
v 3.252046 2.168497 -3.619552
v 3.252059 2.168498 3.61955
v 3.155547 2.168413 3.938901
vt 0.2819074 0.01302131
vt 0.3731756 0.127767
vt 0.3734128 0.01321073
vt 0.2816705 0.1275776
vt 0.2760887 0.01303281
vt 0.2758519 0.127542
vt 0.2816114 0.1345367
vt 0.3732059 0.1347262
vt 0.281877 0.006062046
vt 0.3734718 0.006251588
vt 0.3792315 0.01324625
vt 0.3789943 0.1277555
vt 0.2773788 0.1326605
vt 0.3774461 0.1328677
vt 0.3777045 0.008127704
vt 0.2776366 0.007920757
vt 0.75218 0.8077791
vt 0.6555805 0.6867869
vt 0.6555803 0.807779
vt 0.7521798 0.6867872
vt 0.7522485 0.6794364
vt 0.6555116 0.6794364
vt 0.6494478 0.686859
vt 0.6494476 0.807707
vt 0.7583125 0.8077071
vt 0.7583124 0.686859
vt 0.7522489 0.8151298
vt 0.6555113 0.8151297
vt 0.6510046 0.6814528
vt 0.7567557 0.6814529
vt 0.7567559 0.8131134
vt 0.6510043 0.8131132
vt 0.8399794 0.004132939
vt 0.8366122 0.01009143
vt 0.8366122 0.004132939
vt 0.8399794 0.01009143
vt 0.6962689 0.01009143
vt 0.6962689 0.004132939
vt 0.8366122 0.07906371
vt 0.6962689 0.07906371
vt 0.8399794 0.07906371
vt 0.6925756 0.07906371
vt 0.6925756 0.01009143
vt 0.6883295 0.01009143
vt 0.6925756 0.004132939
vt 0.6883295 0.004132939
vt 0.5457566 0.004132939
vt 0.5457566 0.01009143
vt 0.6883295 0.07906371
vt 0.5457566 0.07906371
vt 0.5417815 0.07906371
vt 0.5417815 0.01009143
vt 0.53834 0.01009143
vt 0.5417815 0.004132939
vt 0.53834 0.004132939
vt 0.3937278 0.004132939
vt 0.3937278 0.01009142
vt 0.53834 0.07906371
vt 0.3937278 0.07906371
vt 0.3904912 0.07906371
vt 0.3904912 0.01009142
vt 0.5417815 0.08502179
vt 0.5457566 0.08502179
vt 0.6883295 0.08502179
vt 0.3904912 0.08502178
vt 0.3937278 0.08502178
vt 0.53834 0.08502179
vt 0.3904912 0.00413294
vt 0.6925756 0.08502179
vt 0.6962689 0.08502179
vt 0.8366122 0.08502179
vt 0.8399794 0.08502179
vt 0.8438554 0.07906371
vt 0.8438554 0.01009143
vt 0.9916103 0.07906371
vt 0.9916103 0.01009143
vt 0.8438554 0.004132939
vt 0.9916103 0.004132939
vt 0.9953361 0.004132939
vt 0.9953361 0.01009143
vt 0.9953361 0.07906371
vt 0.8438554 0.08502179
vt 0.9916103 0.08502179
vt 0.9953361 0.08502179
vn 0.1211557 -0.9877812 0.09802845
vn -0.1211553 -0.9877813 -0.09802824
vn -0.1211598 -0.9877808 0.09802759
vn 0.1211598 -0.9877808 -0.09802771
vn 0.6333634 -0.7663691 0.1073745
vn 0.6333655 -0.7663692 -0.1073609
vn 0.1431698 -0.7928664 -0.5923387
vn -0.1431835 -0.7928618 -0.5923417
vn 0.1431839 -0.7928616 0.5923418
vn -0.1431697 -0.7928664 0.5923389
vn -0.633365 -0.7663696 0.1073607
vn -0.6333631 -0.7663693 -0.1073743
vn 0.5028849 -0.7499356 -0.4297714
vn -0.5028689 -0.749945 -0.4297736
vn -0.5028847 -0.7499357 0.4297714
vn 0.5028692 -0.7499448 0.4297736
vn -0.1158763 0.9889397 0.09257929
vn 0.1158766 0.9889396 -0.09257985
vn 0.1158716 0.9889402 0.09258008
vn -0.1158727 0.9889401 -0.09258065
vn -0.102912 0.878182 -0.4671247
vn 0.1029026 0.878186 -0.4671192
vn 0.5168086 0.8525372 -0.07803278
vn 0.5168057 0.8525379 0.07804431
vn -0.516808 0.8525376 0.07803272
vn -0.5168069 0.8525371 -0.07804475
vn -0.1029048 0.8781835 0.4671236
vn 0.1029158 0.8781804 0.4671268
vn 0.3968053 0.8548811 -0.3342514
vn -0.396785 0.8548914 -0.3342489
vn -0.3968052 0.8548808 0.3342524
vn 0.3967834 0.8548911 0.3342515
vn 0.5028849 -0.7499356 -0.4297714
vn 0.1990557 -0.2720153 -0.9414799
vn 0.1431698 -0.7928664 -0.5923387
vn 0.7175055 -0.2556898 -0.6479263
vn -0.1990503 -0.2720152 -0.9414811
vn -0.1431835 -0.7928618 -0.5923417
vn 0.1864562 0.3963827 -0.8989521
vn -0.1864576 0.3963804 -0.8989528
vn 0.6887864 0.3698987 -0.6234968
vn -0.688783 0.3699127 -0.6234923
vn -0.7175004 -0.2557037 -0.6479265
vn -0.9586955 -0.2433251 -0.1472948
vn -0.5028689 -0.749945 -0.4297736
vn -0.6333631 -0.7663693 -0.1073743
vn -0.633365 -0.7663696 0.1073607
vn -0.9586971 -0.243321 0.1472916
vn -0.9193019 0.3685317 -0.1380883
vn -0.9193035 0.3685288 0.1380857
vn -0.688785 0.3698985 0.6234984
vn -0.7175055 -0.2556898 0.6479264
vn -0.1990555 -0.2720149 0.94148
vn -0.5028847 -0.7499357 0.4297714
vn -0.1431697 -0.7928664 0.5923389
vn 0.1431839 -0.7928616 0.5923418
vn 0.1990503 -0.2720149 0.9414812
vn -0.1864555 0.3963797 0.8989536
vn 0.1864495 0.3963805 0.8989544
vn 0.6887792 0.3699124 0.6234966
vn 0.7175004 -0.2557035 0.6479266
vn -0.3968052 0.8548808 0.3342524
vn -0.516808 0.8525376 0.07803272
vn -0.5168069 0.8525371 -0.07804475
vn 0.3967834 0.8548911 0.3342515
vn 0.1029158 0.8781804 0.4671268
vn -0.1029048 0.8781835 0.4671236
vn 0.5028692 -0.7499448 0.4297736
vn -0.396785 0.8548914 -0.3342489
vn -0.102912 0.878182 -0.4671247
vn 0.1029026 0.878186 -0.4671192
vn 0.3968053 0.8548811 -0.3342514
vn 0.9193035 0.3685288 -0.1380852
vn 0.9586971 -0.2433208 -0.1472916
vn 0.9193018 0.368532 0.1380884
vn 0.9586955 -0.2433251 0.1472948
vn 0.6333655 -0.7663692 -0.1073609
vn 0.6333634 -0.7663691 0.1073745
vn 0.5028692 -0.7499448 0.4297736
vn 0.7175004 -0.2557035 0.6479266
vn 0.6887792 0.3699124 0.6234966
vn 0.5168086 0.8525372 -0.07803278
vn 0.5168057 0.8525379 0.07804431
vn 0.3967834 0.8548911 0.3342515
g Crak_7_0
f 3/3/3 2/2/2 1/1/1
f 4/4/4 1/1/1 2/2/2
f 1/1/1 4/4/4 5/5/5
f 6/6/6 5/5/5 4/4/4
f 4/4/4 2/2/2 7/7/7
f 8/8/8 7/7/7 2/2/2
f 1/1/1 9/9/9 3/3/3
f 10/10/10 3/3/3 9/9/9
f 3/3/3 11/11/11 2/2/2
f 12/12/12 2/2/2 11/11/11
f 4/4/4 7/7/7 13/13/13
f 6/6/6 4/4/4 13/13/13
f 2/2/2 12/12/12 14/14/14
f 8/8/8 2/2/2 14/14/14
f 3/3/3 10/10/10 15/15/15
f 11/11/11 3/3/3 15/15/15
f 1/1/1 5/5/5 16/16/16
f 9/9/9 1/1/1 16/16/16
f 19/19/19 18/18/18 17/17/17
f 20/20/20 17/17/17 18/18/18
f 20/20/20 18/18/18 21/21/21
f 22/22/22 21/21/21 18/18/18
f 18/18/18 19/19/19 23/23/23
f 24/24/24 23/23/23 19/19/19
f 17/17/17 20/20/20 25/25/25
f 26/26/26 25/25/25 20/20/20
f 17/17/17 27/27/27 19/19/19
f 28/28/28 19/19/19 27/27/27
f 18/18/18 23/23/23 29/29/29
f 22/22/22 18/18/18 29/29/29
f 20/20/20 21/21/21 30/30/30
f 26/26/26 20/20/20 30/30/30
f 17/17/17 25/25/25 31/31/31
f 27/27/27 17/17/17 31/31/31
f 19/19/19 28/28/28 32/32/32
f 24/24/24 19/19/19 32/32/32
f 35/35/35 34/34/34 33/33/33
f 36/36/36 33/33/33 34/34/34
f 34/34/34 35/35/35 37/37/37
f 38/38/38 37/37/37 35/35/35
f 34/34/34 37/37/37 39/39/39
f 40/40/40 39/39/39 37/37/37
f 39/39/39 41/41/41 34/34/34
f 36/36/36 34/34/34 41/41/41
f 40/40/40 37/37/37 42/42/42
f 43/43/43 42/42/42 37/37/37
f 43/43/43 44/44/44 42/42/42
f 43/43/43 45/45/45 44/44/44
f 43/43/43 37/37/37 45/45/45
f 38/38/38 45/45/45 37/37/37
f 46/46/46 44/44/44 45/45/45
f 46/46/46 47/47/47 44/44/44
f 48/48/48 44/44/44 47/47/47
f 44/44/44 48/48/48 49/49/49
f 49/49/49 42/42/42 44/44/44
f 50/50/50 49/49/49 48/48/48
f 50/50/50 48/48/48 51/51/51
f 52/52/52 51/51/51 48/48/48
f 52/52/52 53/53/53 51/51/51
f 52/52/52 54/54/54 53/53/53
f 52/52/52 48/48/48 54/54/54
f 47/47/47 54/54/54 48/48/48
f 55/55/55 53/53/53 54/54/54
f 55/55/55 56/56/56 53/53/53
f 57/57/57 53/53/53 56/56/56
f 58/58/58 51/51/51 53/53/53
f 53/53/53 57/57/57 58/58/58
f 59/59/59 58/58/58 57/57/57
f 59/59/59 57/57/57 60/60/60
f 61/61/61 60/60/60 57/57/57
f 51/51/51 62/62/62 50/50/50
f 51/51/51 58/58/58 62/62/62
f 63/63/63 50/50/50 62/62/62
f 49/49/49 50/50/50 64/64/64
f 63/63/63 64/64/64 50/50/50
f 60/60/60 65/65/65 59/59/59
f 66/66/66 59/59/59 65/65/65
f 58/58/58 59/59/59 67/67/67
f 66/66/66 67/67/67 59/59/59
f 67/67/67 62/62/62 58/58/58
f 61/61/61 57/57/57 68/68/68
f 56/56/56 68/68/68 57/57/57
f 64/64/64 69/69/69 49/49/49
f 42/42/42 49/49/49 69/69/69
f 42/42/42 69/69/69 40/40/40
f 70/70/70 40/40/40 69/69/69
f 40/40/40 70/70/70 39/39/39
f 71/71/71 39/39/39 70/70/70
f 71/71/71 72/72/72 39/39/39
f 41/41/41 39/39/39 72/72/72
f 41/41/41 72/72/72 73/73/73
f 73/73/73 74/74/74 41/41/41
f 36/36/36 41/41/41 74/74/74
f 73/73/73 75/75/75 74/74/74
f 76/76/76 74/74/74 75/75/75
f 74/74/74 76/76/76 77/77/77
f 78/78/78 77/77/77 76/76/76
f 78/78/78 76/76/76 79/79/79
f 80/80/80 79/79/79 76/76/76
f 75/75/75 81/81/81 76/76/76
f 80/80/80 76/76/76 81/81/81
f 82/82/82 73/73/73 72/72/72
f 75/75/75 73/73/73 83/83/83
f 82/82/82 83/83/83 73/73/73
f 36/36/36 74/74/74 33/33/33
f 77/77/77 33/33/33 74/74/74
f 81/81/81 75/75/75 84/84/84
f 83/83/83 84/84/84 75/75/75
