g Crak_8
v 2.896682 -2.266865 3.624493
v -2.896682 -2.266866 -3.624492
v -2.896669 -2.266865 3.624496
v 2.896669 -2.266865 -3.624495
v 3.252059 -2.168036 3.61955
v 3.252061 -2.168037 -3.619551
v 2.891313 -2.168037 -4.054389
v -2.89131 -2.168038 -4.054386
v 2.89131 -2.168036 4.054388
v -2.891313 -2.168037 4.05439
v -3.252061 -2.168037 3.619553
v -3.252059 -2.168038 -3.619548
v 3.155549 -2.155824 -3.938903
v -3.155562 -2.155825 -3.9389
v -3.155549 -2.155825 3.938905
v 3.155562 -2.155824 3.938901
v -2.896684 2.266802 3.624496
v 2.896669 2.266803 -3.624496
v 2.896682 2.266803 3.624493
v -2.896682 2.266802 -3.624492
v -2.89131 2.168495 -4.054386
v 2.891313 2.168496 -4.054389
v 3.252061 2.168496 -3.619552
v 3.252059 2.168496 3.619549
v -3.252061 2.168495 3.619552
v -3.252059 2.168495 -3.619548
v -2.891313 2.168495 4.054389
v 2.89131 2.168496 4.054388
v 3.155549 2.168411 -3.938904
v -3.155562 2.16841 -3.9389
v -3.155549 2.168411 3.938904
v 3.155562 2.168412 3.9389
v 3.155549 -2.155824 -3.938903
v 2.896669 -1.920866 -4.214199
v 2.891313 -2.168037 -4.054389
v 3.252061 -1.915945 -4.054389
v -2.896681 -1.920867 -4.214196
v -2.89131 -2.168038 -4.054386
v 2.896669 2.032562 -4.214199
v -2.896681 2.03256 -4.214198
v 3.252061 2.032525 -4.054391
v -3.252059 2.032524 -4.054387
v -3.252059 -1.915946 -4.054386
v -3.388411 -1.920867 -3.624491
v -3.155562 -2.155825 -3.9389
v -3.252059 -2.168038 -3.619548
v -3.252061 -2.168037 3.619553
v -3.388414 -1.920867 3.624497
v -3.388411 2.03256 -3.624492
v -3.388414 2.032561 3.624496
v -3.252061 2.032525 4.054389
v -3.252061 -1.915946 4.05439
v -2.896669 -1.920867 4.214201
v -3.155549 -2.155825 3.938905
v -2.891313 -2.168037 4.05439
v 2.89131 -2.168036 4.054388
v 2.896681 -1.920866 4.214198
v -2.896669 2.032561 4.214201
v 2.896681 2.032562 4.214198
v 3.252059 2.032526 4.054383
v 3.252059 -1.915945 4.054387
v -3.155549 2.168411 3.938904
v -3.252061 2.168495 3.619552
v -3.252059 2.168495 -3.619548
v 3.155562 2.168412 3.9389
v 2.89131 2.168496 4.054388
v -2.891313 2.168495 4.054389
v 3.155562 -2.155824 3.938901
v -3.155562 2.16841 -3.9389
v -2.89131 2.168495 -4.054386
v 2.891313 2.168496 -4.054389
v 3.155549 2.168411 -3.938904
v 3.388414 2.032561 -3.624496
v 3.388414 -1.920866 -3.624495
v 3.388411 2.032562 3.624492
v 3.388411 -1.920866 3.624493
v 3.252061 -2.168037 -3.619551
v 3.252059 -2.168036 3.61955
v 3.155562 -2.155824 3.938901
v 3.252059 -1.915945 4.054387
v 3.252059 2.032526 4.054383
v 3.252061 2.168496 -3.619552
v 3.252059 2.168496 3.619549
v 3.155562 2.168412 3.9389
vt 0.2819074 0.01302131
vt 0.3731756 0.127767
vt 0.3734128 0.01321073
vt 0.2816705 0.1275776
vt 0.2760887 0.01303281
vt 0.2758519 0.127542
vt 0.2816114 0.1345367
vt 0.3732059 0.1347262
vt 0.281877 0.006062046
vt 0.3734718 0.006251588
vt 0.3792315 0.01324625
vt 0.3789943 0.1277555
vt 0.2773788 0.1326605
vt 0.3774461 0.1328677
vt 0.3777045 0.008127704
vt 0.2776366 0.007920757
vt 0.8582909 0.8073029
vt 0.7616913 0.6863108
vt 0.7616911 0.8073029
vt 0.8582906 0.6863109
vt 0.8583593 0.6789601
vt 0.7616224 0.6789601
vt 0.7555586 0.6863827
vt 0.7555585 0.8072308
vt 0.8644233 0.807231
vt 0.8644232 0.6863828
vt 0.8583598 0.8146537
vt 0.7616221 0.8146535
vt 0.7571154 0.6809767
vt 0.8628665 0.6809767
vt 0.8628668 0.8126372
vt 0.7571151 0.812637
vt 0.8399794 0.004132939
vt 0.8366122 0.01009143
vt 0.8366122 0.004132939
vt 0.8399794 0.01009143
vt 0.6962689 0.01009143
vt 0.6962689 0.004132939
vt 0.8366122 0.07906371
vt 0.6962689 0.07906371
vt 0.8399794 0.07906371
vt 0.6925756 0.07906371
vt 0.6925756 0.01009143
vt 0.6883295 0.01009143
vt 0.6925756 0.004132939
vt 0.6883295 0.004132939
vt 0.5457566 0.004132939
vt 0.5457566 0.01009143
vt 0.6883295 0.07906371
vt 0.5457566 0.07906371
vt 0.5417815 0.07906371
vt 0.5417815 0.01009143
vt 0.53834 0.01009143
vt 0.5417815 0.004132939
vt 0.53834 0.004132939
vt 0.3937278 0.004132939
vt 0.3937278 0.01009142
vt 0.53834 0.07906371
vt 0.3937278 0.07906371
vt 0.3904912 0.07906371
vt 0.3904912 0.01009142
vt 0.5417815 0.08502179
vt 0.5457566 0.08502179
vt 0.6883295 0.08502179
vt 0.3904912 0.08502178
vt 0.3937278 0.08502178
vt 0.53834 0.08502179
vt 0.3904912 0.00413294
vt 0.6925756 0.08502179
vt 0.6962689 0.08502179
vt 0.8366122 0.08502179
vt 0.8399794 0.08502179
vt 0.8438554 0.07906371
vt 0.8438554 0.01009143
vt 0.9916103 0.07906371
vt 0.9916103 0.01009143
vt 0.8438554 0.004132939
vt 0.9916103 0.004132939
vt 0.9953361 0.004132939
vt 0.9953361 0.01009143
vt 0.9953361 0.07906371
vt 0.8438554 0.08502179
vt 0.9916103 0.08502179
vt 0.9953361 0.08502179
vn 0.1211604 -0.9877807 0.09802811
vn -0.1211598 -0.9877807 -0.09802815
vn -0.1211554 -0.9877812 0.09802899
vn 0.1211556 -0.9877812 -0.09802887
vn 0.6333655 -0.7663692 0.1073608
vn 0.6333631 -0.7663692 -0.1073743
vn 0.1431699 -0.7928665 -0.5923387
vn -0.1431576 -0.7928709 -0.5923357
vn 0.143158 -0.7928707 0.5923358
vn -0.1431697 -0.7928664 0.5923389
vn -0.6333629 -0.7663695 0.1073745
vn -0.6333653 -0.7663693 -0.1073609
vn 0.5028651 -0.7499464 -0.4297757
vn -0.5028817 -0.7499365 -0.4297733
vn -0.5028651 -0.7499464 0.4297757
vn 0.5028819 -0.7499363 0.4297733
vn -0.1158777 0.9889393 0.09258097
vn 0.1158722 0.9889401 -0.09258126
vn 0.1158762 0.9889397 0.09257957
vn -0.1158771 0.9889396 -0.09258024
vn -0.1028933 0.8781878 -0.4671179
vn 0.1029037 0.8781829 -0.4671247
vn 0.5168058 0.8525379 -0.0780442
vn 0.5168082 0.8525375 0.07803328
vn -0.5168099 0.8525354 0.07804465
vn -0.516809 0.8525369 -0.07803292
vn -0.1029034 0.878184 0.4671229
vn 0.1028939 0.8781872 0.4671187
vn 0.3967809 0.8548917 -0.3342533
vn -0.3968036 0.8548812 -0.3342532
vn -0.3967829 0.85489 0.334255
vn 0.3968047 0.8548797 0.3342555
vn 0.5028651 -0.7499464 -0.4297757
vn 0.1990497 -0.2720171 -0.9414807
vn 0.1431699 -0.7928665 -0.5923387
vn 0.7175 -0.2557038 -0.6479269
vn -0.1990573 -0.2720172 -0.941479
vn -0.1431576 -0.7928709 -0.5923357
vn 0.1864478 0.3963814 -0.8989544
vn -0.1864574 0.3963824 -0.8989519
vn 0.6887775 0.3699126 -0.6234984
vn -0.6887856 0.3698988 -0.6234976
vn -0.7175059 -0.2556897 -0.647926
vn -0.9586972 -0.2433207 -0.147291
vn -0.5028817 -0.7499365 -0.4297733
vn -0.6333653 -0.7663693 -0.1073609
vn -0.6333629 -0.7663695 0.1073745
vn -0.9586954 -0.2433253 0.1472953
vn -0.9193037 0.3685284 -0.1380851
vn -0.9193016 0.3685321 0.1380891
vn -0.6887799 0.3699116 0.6234965
vn -0.7174999 -0.2557037 0.647927
vn -0.1990498 -0.2720169 0.9414807
vn -0.5028651 -0.7499464 0.4297757
vn -0.1431697 -0.7928664 0.5923389
vn 0.143158 -0.7928707 0.5923358
vn 0.1990576 -0.2720167 0.9414791
vn -0.1864502 0.3963824 0.8989535
vn 0.1864605 0.3963808 0.8989519
vn 0.6887889 0.3698957 0.6234958
vn 0.7175059 -0.2556892 0.6479262
vn -0.3967829 0.85489 0.334255
vn -0.5168099 0.8525354 0.07804465
vn -0.516809 0.8525369 -0.07803292
vn 0.3968047 0.8548797 0.3342555
vn 0.1028939 0.8781872 0.4671187
vn -0.1029034 0.878184 0.4671229
vn 0.5028819 -0.7499363 0.4297733
vn -0.3968036 0.8548812 -0.3342532
vn -0.1028933 0.8781878 -0.4671179
vn 0.1029037 0.8781829 -0.4671247
vn 0.3967809 0.8548917 -0.3342533
vn 0.9193016 0.3685323 -0.138089
vn 0.9586954 -0.2433252 -0.1472953
vn 0.9193035 0.3685286 0.1380855
vn 0.9586972 -0.2433206 0.1472911
vn 0.6333631 -0.7663692 -0.1073743
vn 0.6333655 -0.7663692 0.1073608
vn 0.5028819 -0.7499363 0.4297733
vn 0.7175059 -0.2556892 0.6479262
vn 0.6887889 0.3698957 0.6234958
vn 0.5168058 0.8525379 -0.0780442
vn 0.5168082 0.8525375 0.07803328
vn 0.3968047 0.8548797 0.3342555
g Crak_8_0
f 3/3/3 2/2/2 1/1/1
f 4/4/4 1/1/1 2/2/2
f 1/1/1 4/4/4 5/5/5
f 6/6/6 5/5/5 4/4/4
f 4/4/4 2/2/2 7/7/7
f 8/8/8 7/7/7 2/2/2
f 1/1/1 9/9/9 3/3/3
f 10/10/10 3/3/3 9/9/9
f 3/3/3 11/11/11 2/2/2
f 12/12/12 2/2/2 11/11/11
f 4/4/4 7/7/7 13/13/13
f 6/6/6 4/4/4 13/13/13
f 2/2/2 12/12/12 14/14/14
f 8/8/8 2/2/2 14/14/14
f 3/3/3 10/10/10 15/15/15
f 11/11/11 3/3/3 15/15/15
f 1/1/1 5/5/5 16/16/16
f 9/9/9 1/1/1 16/16/16
f 19/19/19 18/18/18 17/17/17
f 20/20/20 17/17/17 18/18/18
f 20/20/20 18/18/18 21/21/21
f 22/22/22 21/21/21 18/18/18
f 18/18/18 19/19/19 23/23/23
f 24/24/24 23/23/23 19/19/19
f 17/17/17 20/20/20 25/25/25
f 26/26/26 25/25/25 20/20/20
f 17/17/17 27/27/27 19/19/19
f 28/28/28 19/19/19 27/27/27
f 18/18/18 23/23/23 29/29/29
f 22/22/22 18/18/18 29/29/29
f 20/20/20 21/21/21 30/30/30
f 26/26/26 20/20/20 30/30/30
f 17/17/17 25/25/25 31/31/31
f 27/27/27 17/17/17 31/31/31
f 19/19/19 28/28/28 32/32/32
f 24/24/24 19/19/19 32/32/32
f 35/35/35 34/34/34 33/33/33
f 36/36/36 33/33/33 34/34/34
f 34/34/34 35/35/35 37/37/37
f 38/38/38 37/37/37 35/35/35
f 34/34/34 37/37/37 39/39/39
f 40/40/40 39/39/39 37/37/37
f 39/39/39 41/41/41 34/34/34
f 36/36/36 34/34/34 41/41/41
f 40/40/40 37/37/37 42/42/42
f 43/43/43 42/42/42 37/37/37
f 43/43/43 44/44/44 42/42/42
f 43/43/43 45/45/45 44/44/44
f 43/43/43 37/37/37 45/45/45
f 38/38/38 45/45/45 37/37/37
f 46/46/46 44/44/44 45/45/45
f 46/46/46 47/47/47 44/44/44
f 48/48/48 44/44/44 47/47/47
f 44/44/44 48/48/48 49/49/49
f 49/49/49 42/42/42 44/44/44
f 50/50/50 49/49/49 48/48/48
f 50/50/50 48/48/48 51/51/51
f 52/52/52 51/51/51 48/48/48
f 52/52/52 53/53/53 51/51/51
f 52/52/52 54/54/54 53/53/53
f 52/52/52 48/48/48 54/54/54
f 47/47/47 54/54/54 48/48/48
f 55/55/55 53/53/53 54/54/54
f 55/55/55 56/56/56 53/53/53
f 57/57/57 53/53/53 56/56/56
f 58/58/58 51/51/51 53/53/53
f 53/53/53 57/57/57 58/58/58
f 59/59/59 58/58/58 57/57/57
f 59/59/59 57/57/57 60/60/60
f 61/61/61 60/60/60 57/57/57
f 51/51/51 62/62/62 50/50/50
f 51/51/51 58/58/58 62/62/62
f 63/63/63 50/50/50 62/62/62
f 49/49/49 50/50/50 64/64/64
f 63/63/63 64/64/64 50/50/50
f 60/60/60 65/65/65 59/59/59
f 66/66/66 59/59/59 65/65/65
f 58/58/58 59/59/59 67/67/67
f 66/66/66 67/67/67 59/59/59
f 67/67/67 62/62/62 58/58/58
f 61/61/61 57/57/57 68/68/68
f 56/56/56 68/68/68 57/57/57
f 64/64/64 69/69/69 49/49/49
f 42/42/42 49/49/49 69/69/69
f 42/42/42 69/69/69 40/40/40
f 70/70/70 40/40/40 69/69/69
f 40/40/40 70/70/70 39/39/39
f 71/71/71 39/39/39 70/70/70
f 71/71/71 72/72/72 39/39/39
f 41/41/41 39/39/39 72/72/72
f 41/41/41 72/72/72 73/73/73
f 73/73/73 74/74/74 41/41/41
f 36/36/36 41/41/41 74/74/74
f 73/73/73 75/75/75 74/74/74
f 76/76/76 74/74/74 75/75/75
f 74/74/74 76/76/76 77/77/77
f 78/78/78 77/77/77 76/76/76
f 78/78/78 76/76/76 79/79/79
f 80/80/80 79/79/79 76/76/76
f 75/75/75 81/81/81 76/76/76
f 80/80/80 76/76/76 81/81/81
f 82/82/82 73/73/73 72/72/72
f 75/75/75 73/73/73 83/83/83
f 82/82/82 83/83/83 73/73/73
f 36/36/36 74/74/74 33/33/33
f 77/77/77 33/33/33 74/74/74
f 81/81/81 75/75/75 84/84/84
f 83/83/83 84/84/84 75/75/75
