g Crak_1
v 2.896666 -2.266856 3.624494
v -2.896682 -2.266857 -3.624491
v -2.896669 -2.266857 3.624497
v 2.896669 -2.266856 -3.624495
v 3.252059 -2.168028 3.61955
v 3.252046 -2.168028 -3.619551
v 2.891313 -2.168028 -4.054388
v -2.891325 -2.168029 -4.054385
v 2.89131 -2.168028 4.054388
v -2.891313 -2.168029 4.054391
v -3.252061 -2.168029 3.619554
v -3.252059 -2.16803 -3.619547
v 3.155549 -2.155816 -3.938903
v -3.155562 -2.155817 -3.938899
v -3.155549 -2.155817 3.938905
v 3.155547 -2.155815 3.938902
v -2.896684 2.266811 3.624497
v 2.896669 2.266812 -3.624495
v 2.896666 2.266812 3.624493
v -2.896682 2.266811 -3.624491
v -2.891325 2.168503 -4.054386
v 2.891313 2.168504 -4.054389
v 3.252038 2.168504 -3.619551
v 3.252059 2.168505 3.61955
v -3.252061 2.168504 3.619553
v -3.252059 2.168503 -3.619548
v -2.891313 2.168504 4.054391
v 2.891303 2.168505 4.054388
v 3.155542 2.16842 -3.938903
v -3.155562 2.168419 -3.9389
v -3.155549 2.168419 3.938905
v 3.155547 2.168421 3.938902
v 3.155549 -2.155816 -3.938903
v 2.896669 -1.920858 -4.214199
v 2.891313 -2.168028 -4.054388
v 3.252046 -1.915937 -4.054389
v -2.896681 -1.920859 -4.214196
v -2.891325 -2.168029 -4.054385
v 2.896669 2.03257 -4.2142
v -2.896681 2.032569 -4.214196
v 3.252046 2.032533 -4.05439
v -3.252059 2.032532 -4.054387
v -3.252059 -1.915938 -4.054385
v -3.388411 -1.920859 -3.624491
v -3.155562 -2.155817 -3.938899
v -3.252059 -2.16803 -3.619547
v -3.252061 -2.168029 3.619554
v -3.388414 -1.920859 3.624497
v -3.388411 2.032569 -3.624492
v -3.388414 2.032569 3.624498
v -3.252061 2.032533 4.054391
v -3.252061 -1.915937 4.054391
v -2.896669 -1.920859 4.214201
v -3.155549 -2.155817 3.938905
v -2.891313 -2.168029 4.054391
v 2.89131 -2.168028 4.054388
v 2.896666 -1.920858 4.214199
v -2.896669 2.032569 4.2142
v 2.896636 2.03257 4.214195
v 3.252028 2.032534 4.054388
v 3.252059 -1.915936 4.054388
v -3.155549 2.168419 3.938905
v -3.252061 2.168504 3.619553
v -3.252059 2.168503 -3.619548
v 3.155547 2.168421 3.938902
v 2.891303 2.168505 4.054388
v -2.891313 2.168504 4.054391
v 3.155547 -2.155815 3.938902
v -3.155562 2.168419 -3.9389
v -2.891325 2.168503 -4.054386
v 2.891313 2.168504 -4.054389
v 3.155542 2.16842 -3.938903
v 3.388368 2.03257 -3.624496
v 3.388398 -1.920858 -3.624495
v 3.388411 2.03257 3.624493
v 3.388411 -1.920858 3.624493
v 3.252046 -2.168028 -3.619551
v 3.252059 -2.168028 3.61955
v 3.155547 -2.155815 3.938902
v 3.252059 -1.915936 4.054388
v 3.252028 2.032534 4.054388
v 3.252038 2.168504 -3.619551
v 3.252059 2.168505 3.61955
v 3.155547 2.168421 3.938902
vt 0.2819074 0.01302131
vt 0.3731756 0.127767
vt 0.3734128 0.01321073
vt 0.2816705 0.1275776
vt 0.2760887 0.01303281
vt 0.2758519 0.127542
vt 0.2816114 0.1345367
vt 0.3732059 0.1347262
vt 0.281877 0.006062046
vt 0.3734718 0.006251588
vt 0.3792315 0.01324625
vt 0.3789943 0.1277555
vt 0.2773788 0.1326605
vt 0.3774461 0.1328677
vt 0.3777045 0.008127704
vt 0.2776366 0.007920757
vt 0.1026767 0.8082835
vt 0.006077083 0.6872913
vt 0.006076938 0.8082834
vt 0.1026764 0.6872916
vt 0.1027452 0.6799408
vt 0.006008197 0.6799408
vt -5.556614E-05 0.6873633
vt -5.572726E-05 0.8082114
vt 0.1088091 0.8082115
vt 0.108809 0.6873633
vt 0.1027456 0.8156342
vt 0.006007928 0.8156341
vt 0.00150121 0.6819572
vt 0.1072523 0.6819573
vt 0.1072526 0.8136178
vt 0.001500869 0.8136176
vt 0.8399794 0.004132939
vt 0.8366122 0.01009143
vt 0.8366122 0.004132939
vt 0.8399794 0.01009143
vt 0.6962689 0.01009143
vt 0.6962689 0.004132939
vt 0.8366122 0.07906371
vt 0.6962689 0.07906371
vt 0.8399794 0.07906371
vt 0.6925756 0.07906371
vt 0.6925756 0.01009143
vt 0.6883295 0.01009143
vt 0.6925756 0.004132939
vt 0.6883295 0.004132939
vt 0.5457566 0.004132939
vt 0.5457566 0.01009143
vt 0.6883295 0.07906371
vt 0.5457566 0.07906371
vt 0.5417815 0.07906371
vt 0.5417815 0.01009143
vt 0.53834 0.01009143
vt 0.5417815 0.004132939
vt 0.53834 0.004132939
vt 0.3937278 0.004132939
vt 0.3937278 0.01009142
vt 0.53834 0.07906371
vt 0.3937278 0.07906371
vt 0.3904912 0.07906371
vt 0.3904912 0.01009142
vt 0.5417815 0.08502179
vt 0.5457566 0.08502179
vt 0.6883295 0.08502179
vt 0.3904912 0.08502178
vt 0.3937278 0.08502178
vt 0.53834 0.08502179
vt 0.3904912 0.00413294
vt 0.6925756 0.08502179
vt 0.6962689 0.08502179
vt 0.8366122 0.08502179
vt 0.8399794 0.08502179
vt 0.8438554 0.07906371
vt 0.8438554 0.01009143
vt 0.9916103 0.07906371
vt 0.9916103 0.01009143
vt 0.8438554 0.004132939
vt 0.9916103 0.004132939
vt 0.9953361 0.004132939
vt 0.9953361 0.01009143
vt 0.9953361 0.07906371
vt 0.8438554 0.08502179
vt 0.9916103 0.08502179
vt 0.9953361 0.08502179
vn 0.1211558 -0.9877812 0.09802899
vn -0.1211597 -0.9877808 -0.09802763
vn -0.1211554 -0.9877812 0.09802899
vn 0.1211598 -0.9877808 -0.09802771
vn 0.6333634 -0.7663691 0.1073745
vn 0.6333655 -0.7663692 -0.1073609
vn 0.1431698 -0.7928665 -0.5923387
vn -0.1431705 -0.7928664 -0.5923387
vn 0.143171 -0.7928662 0.5923388
vn -0.1431697 -0.7928664 0.5923389
vn -0.6333629 -0.7663695 0.1073745
vn -0.6333653 -0.7663693 -0.1073609
vn 0.5028849 -0.7499356 -0.4297714
vn -0.5028851 -0.7499354 -0.4297713
vn -0.5028651 -0.7499464 0.4297757
vn 0.5028659 -0.7499459 0.4297757
vn -0.1158775 0.9889395 0.09258079
vn 0.1158792 0.9889393 -0.09257987
vn 0.1158718 0.9889402 0.09258034
vn -0.115877 0.9889396 -0.09257988
vn -0.1029054 0.8781828 -0.4671246
vn 0.1029065 0.8781837 -0.4671227
vn 0.5168472 0.8525133 -0.07803865
vn 0.5168061 0.8525378 0.07804326
vn -0.5168099 0.8525354 0.07804497
vn -0.5168084 0.8525374 -0.07803289
vn -0.1029039 0.8781823 0.4671259
vn 0.1029103 0.878176 0.4671361
vn 0.3968115 0.8548815 -0.3342426
vn -0.396805 0.8548807 -0.3342528
vn -0.3967823 0.85489 0.3342558
vn 0.3968062 0.8548709 0.3342761
vn 0.5028849 -0.7499356 -0.4297714
vn 0.1990556 -0.2720152 -0.9414799
vn 0.1431698 -0.7928665 -0.5923387
vn 0.7175055 -0.2556898 -0.6479263
vn -0.1990568 -0.2720152 -0.9414799
vn -0.1431705 -0.7928664 -0.5923387
vn 0.1864558 0.3963813 -0.8989527
vn -0.1864554 0.3963793 -0.8989537
vn 0.6888021 0.3699049 -0.6234758
vn -0.6887842 0.3698989 -0.6234991
vn -0.7175059 -0.2556897 -0.647926
vn -0.9586972 -0.2433207 -0.147291
vn -0.5028851 -0.7499354 -0.4297713
vn -0.6333653 -0.7663693 -0.1073609
vn -0.6333629 -0.7663695 0.1073745
vn -0.9586954 -0.2433253 0.1472953
vn -0.9193034 0.3685291 -0.1380851
vn -0.9193018 0.3685317 0.1380892
vn -0.6887784 0.3699119 0.6234979
vn -0.7175 -0.2557038 0.647927
vn -0.1990497 -0.2720169 0.9414808
vn -0.5028651 -0.7499464 0.4297757
vn -0.1431697 -0.7928664 0.5923389
vn 0.143171 -0.7928662 0.5923388
vn 0.1990515 -0.2720158 0.9414807
vn -0.1864486 0.3963802 0.8989547
vn 0.1864426 0.3963726 0.8989593
vn 0.6887605 0.3698868 0.6235324
vn 0.7175015 -0.2557008 0.6479266
vn -0.3967823 0.85489 0.3342558
vn -0.5168099 0.8525354 0.07804497
vn -0.5168084 0.8525374 -0.07803289
vn 0.3968062 0.8548709 0.3342761
vn 0.1029103 0.878176 0.4671361
vn -0.1029039 0.8781823 0.4671259
vn 0.5028659 -0.7499459 0.4297757
vn -0.396805 0.8548807 -0.3342528
vn -0.1029054 0.8781828 -0.4671246
vn 0.1029065 0.8781837 -0.4671227
vn 0.3968115 0.8548815 -0.3342426
vn 0.9193158 0.3685052 -0.1380669
vn 0.9586975 -0.2433193 -0.1472911
vn 0.9193018 0.368524 0.1381093
vn 0.9586958 -0.2433234 0.1472961
vn 0.6333655 -0.7663692 -0.1073609
vn 0.6333634 -0.7663691 0.1073745
vn 0.5028659 -0.7499459 0.4297757
vn 0.7175015 -0.2557008 0.6479266
vn 0.6887605 0.3698868 0.6235324
vn 0.5168472 0.8525133 -0.07803865
vn 0.5168061 0.8525378 0.07804326
vn 0.3968062 0.8548709 0.3342761
g Crak_1_0
f 3/3/3 2/2/2 1/1/1
f 4/4/4 1/1/1 2/2/2
f 1/1/1 4/4/4 5/5/5
f 6/6/6 5/5/5 4/4/4
f 4/4/4 2/2/2 7/7/7
f 8/8/8 7/7/7 2/2/2
f 1/1/1 9/9/9 3/3/3
f 10/10/10 3/3/3 9/9/9
f 3/3/3 11/11/11 2/2/2
f 12/12/12 2/2/2 11/11/11
f 4/4/4 7/7/7 13/13/13
f 6/6/6 4/4/4 13/13/13
f 2/2/2 12/12/12 14/14/14
f 8/8/8 2/2/2 14/14/14
f 3/3/3 10/10/10 15/15/15
f 11/11/11 3/3/3 15/15/15
f 1/1/1 5/5/5 16/16/16
f 9/9/9 1/1/1 16/16/16
f 19/19/19 18/18/18 17/17/17
f 20/20/20 17/17/17 18/18/18
f 20/20/20 18/18/18 21/21/21
f 22/22/22 21/21/21 18/18/18
f 18/18/18 19/19/19 23/23/23
f 24/24/24 23/23/23 19/19/19
f 17/17/17 20/20/20 25/25/25
f 26/26/26 25/25/25 20/20/20
f 17/17/17 27/27/27 19/19/19
f 28/28/28 19/19/19 27/27/27
f 18/18/18 23/23/23 29/29/29
f 22/22/22 18/18/18 29/29/29
f 20/20/20 21/21/21 30/30/30
f 26/26/26 20/20/20 30/30/30
f 17/17/17 25/25/25 31/31/31
f 27/27/27 17/17/17 31/31/31
f 19/19/19 28/28/28 32/32/32
f 24/24/24 19/19/19 32/32/32
f 35/35/35 34/34/34 33/33/33
f 36/36/36 33/33/33 34/34/34
f 34/34/34 35/35/35 37/37/37
f 38/38/38 37/37/37 35/35/35
f 34/34/34 37/37/37 39/39/39
f 40/40/40 39/39/39 37/37/37
f 39/39/39 41/41/41 34/34/34
f 36/36/36 34/34/34 41/41/41
f 40/40/40 37/37/37 42/42/42
f 43/43/43 42/42/42 37/37/37
f 43/43/43 44/44/44 42/42/42
f 43/43/43 45/45/45 44/44/44
f 43/43/43 37/37/37 45/45/45
f 38/38/38 45/45/45 37/37/37
f 46/46/46 44/44/44 45/45/45
f 46/46/46 47/47/47 44/44/44
f 48/48/48 44/44/44 47/47/47
f 44/44/44 48/48/48 49/49/49
f 49/49/49 42/42/42 44/44/44
f 50/50/50 49/49/49 48/48/48
f 50/50/50 48/48/48 51/51/51
f 52/52/52 51/51/51 48/48/48
f 52/52/52 53/53/53 51/51/51
f 52/52/52 54/54/54 53/53/53
f 52/52/52 48/48/48 54/54/54
f 47/47/47 54/54/54 48/48/48
f 55/55/55 53/53/53 54/54/54
f 55/55/55 56/56/56 53/53/53
f 57/57/57 53/53/53 56/56/56
f 58/58/58 51/51/51 53/53/53
f 53/53/53 57/57/57 58/58/58
f 59/59/59 58/58/58 57/57/57
f 59/59/59 57/57/57 60/60/60
f 61/61/61 60/60/60 57/57/57
f 51/51/51 62/62/62 50/50/50
f 51/51/51 58/58/58 62/62/62
f 63/63/63 50/50/50 62/62/62
f 49/49/49 50/50/50 64/64/64
f 63/63/63 64/64/64 50/50/50
f 60/60/60 65/65/65 59/59/59
f 66/66/66 59/59/59 65/65/65
f 58/58/58 59/59/59 67/67/67
f 66/66/66 67/67/67 59/59/59
f 67/67/67 62/62/62 58/58/58
f 61/61/61 57/57/57 68/68/68
f 56/56/56 68/68/68 57/57/57
f 64/64/64 69/69/69 49/49/49
f 42/42/42 49/49/49 69/69/69
f 42/42/42 69/69/69 40/40/40
f 70/70/70 40/40/40 69/69/69
f 40/40/40 70/70/70 39/39/39
f 71/71/71 39/39/39 70/70/70
f 71/71/71 72/72/72 39/39/39
f 41/41/41 39/39/39 72/72/72
f 41/41/41 72/72/72 73/73/73
f 73/73/73 74/74/74 41/41/41
f 36/36/36 41/41/41 74/74/74
f 73/73/73 75/75/75 74/74/74
f 76/76/76 74/74/74 75/75/75
f 74/74/74 76/76/76 77/77/77
f 78/78/78 77/77/77 76/76/76
f 78/78/78 76/76/76 79/79/79
f 80/80/80 79/79/79 76/76/76
f 75/75/75 81/81/81 76/76/76
f 80/80/80 76/76/76 81/81/81
f 82/82/82 73/73/73 72/72/72
f 75/75/75 73/73/73 83/83/83
f 82/82/82 83/83/83 73/73/73
f 36/36/36 74/74/74 33/33/33
f 77/77/77 33/33/33 74/74/74
f 81/81/81 75/75/75 84/84/84
f 83/83/83 84/84/84 75/75/75
