g Dot_9
v 2.896677 -2.266855 3.624496
v -2.896671 -2.266856 -3.624489
v -2.896666 -2.266856 3.624499
v 2.896672 -2.266855 -3.624492
v 3.252062 -2.168027 3.619552
v 3.252057 -2.168027 -3.619549
v 2.891316 -2.168027 -4.054386
v -2.891315 -2.168028 -4.054384
v 2.891321 -2.168027 4.05439
v -2.89131 -2.168028 4.054393
v -3.25205 -2.168028 3.619556
v -3.252056 -2.168028 -3.619545
v 3.155552 -2.155815 -3.9389
v -3.155551 -2.155816 -3.938898
v -3.155546 -2.155815 3.938907
v 3.155557 -2.155814 3.938904
v -2.896673 2.266812 3.624499
v 2.896672 2.266813 -3.624493
v 2.896677 2.266813 3.624496
v -2.896671 2.266812 -3.624489
v -2.891315 2.168504 -4.054384
v 2.891316 2.168505 -4.054386
v 3.252057 2.168505 -3.61955
v 3.252062 2.168505 3.619551
v -3.25205 2.168504 3.619555
v -3.252056 2.168504 -3.619546
v -2.89131 2.168504 4.054392
v 2.891321 2.168505 4.054389
v 3.155552 2.168421 -3.938901
v -3.155551 2.168419 -3.938898
v -3.155546 2.16842 3.938907
v 3.155557 2.168421 3.938904
v 3.155552 -2.155815 -3.9389
v 2.896672 -1.920857 -4.214197
v 2.891316 -2.168027 -4.054386
v 3.252057 -1.915936 -4.054386
v -2.896671 -1.920858 -4.214194
v -2.891315 -2.168028 -4.054384
v 2.896672 2.032571 -4.214197
v -2.896678 2.03257 -4.214195
v 3.252057 2.032534 -4.05439
v -3.252056 2.032533 -4.054382
v -3.252056 -1.915937 -4.054383
v -3.388408 -1.920858 -3.624488
v -3.155551 -2.155816 -3.938898
v -3.252056 -2.168028 -3.619545
v -3.25205 -2.168028 3.619556
v -3.388403 -1.920858 3.6245
v -3.388408 2.032569 -3.624488
v -3.388403 2.03257 3.624498
v -3.252051 2.032534 4.054393
v -3.252051 -1.915936 4.054393
v -2.896666 -1.920858 4.214203
v -3.155546 -2.155815 3.938907
v -2.89131 -2.168028 4.054393
v 2.891321 -2.168027 4.05439
v 2.896677 -1.920857 4.2142
v -2.896666 2.03257 4.214201
v 2.896677 2.032571 4.214199
v 3.252062 2.032535 4.05439
v 3.252062 -1.915935 4.05439
v -3.155546 2.16842 3.938907
v -3.25205 2.168504 3.619555
v -3.252056 2.168504 -3.619546
v 3.155557 2.168421 3.938904
v 2.891321 2.168505 4.054389
v -2.89131 2.168504 4.054392
v 3.155557 -2.155814 3.938904
v -3.155551 2.168419 -3.938898
v -2.891315 2.168504 -4.054384
v 2.891316 2.168505 -4.054386
v 3.155552 2.168421 -3.938901
v 3.388409 2.03257 -3.624493
v 3.388409 -1.920857 -3.624493
v 3.388414 2.032571 3.624493
v 3.388414 -1.920857 3.624495
v 3.252057 -2.168027 -3.619549
v 3.252062 -2.168027 3.619552
v 3.155557 -2.155814 3.938904
v 3.252062 -1.915935 4.05439
v 3.252062 2.032535 4.05439
v 3.252057 2.168505 -3.61955
v 3.252062 2.168505 3.619551
v 3.155557 2.168421 3.938904
vt 0.2819074 0.01302131
vt 0.3731756 0.127767
vt 0.3734128 0.01321073
vt 0.2816705 0.1275776
vt 0.2760887 0.01303281
vt 0.2758519 0.127542
vt 0.2816114 0.1345367
vt 0.3732059 0.1347262
vt 0.281877 0.006062046
vt 0.3734718 0.006251588
vt 0.3792315 0.01324625
vt 0.3789943 0.1277555
vt 0.2773788 0.1326605
vt 0.3774461 0.1328677
vt 0.3777045 0.008127704
vt 0.2776366 0.007920757
vt 0.9668946 0.6400731
vt 0.870295 0.5190809
vt 0.8702949 0.640073
vt 0.9668943 0.5190812
vt 0.9669631 0.5117304
vt 0.8702261 0.5117304
vt 0.8641624 0.5191529
vt 0.8641621 0.640001
vt 0.9730269 0.6400011
vt 0.9730269 0.5191529
vt 0.9669635 0.6474238
vt 0.8702258 0.6474237
vt 0.8657191 0.5137468
vt 0.9714702 0.5137469
vt 0.9714705 0.6454074
vt 0.8657188 0.6454073
vt 0.8399794 0.004132939
vt 0.8366122 0.01009143
vt 0.8366122 0.004132939
vt 0.8399794 0.01009143
vt 0.6962689 0.01009143
vt 0.6962689 0.004132939
vt 0.8366122 0.07906371
vt 0.6962689 0.07906371
vt 0.8399794 0.07906371
vt 0.6925756 0.07906371
vt 0.6925756 0.01009143
vt 0.6883295 0.01009143
vt 0.6925756 0.004132939
vt 0.6883295 0.004132939
vt 0.5457566 0.004132939
vt 0.5457566 0.01009143
vt 0.6883295 0.07906371
vt 0.5457566 0.07906371
vt 0.5417815 0.07906371
vt 0.5417815 0.01009143
vt 0.53834 0.01009143
vt 0.5417815 0.004132939
vt 0.53834 0.004132939
vt 0.3937278 0.004132939
vt 0.3937278 0.01009142
vt 0.53834 0.07906371
vt 0.3937278 0.07906371
vt 0.3904912 0.07906371
vt 0.3904912 0.01009142
vt 0.5417815 0.08502179
vt 0.5457566 0.08502179
vt 0.6883295 0.08502179
vt 0.3904912 0.08502178
vt 0.3937278 0.08502178
vt 0.53834 0.08502179
vt 0.3904912 0.00413294
vt 0.6925756 0.08502179
vt 0.6962689 0.08502179
vt 0.8366122 0.08502179
vt 0.8399794 0.08502179
vt 0.8438554 0.07906371
vt 0.8438554 0.01009143
vt 0.9916103 0.07906371
vt 0.9916103 0.01009143
vt 0.8438554 0.004132939
vt 0.9916103 0.004132939
vt 0.9953361 0.004132939
vt 0.9953361 0.01009143
vt 0.9953361 0.07906371
vt 0.8438554 0.08502179
vt 0.9916103 0.08502179
vt 0.9953361 0.08502179
vn 0.121158 -0.9877809 0.09802827
vn -0.1211576 -0.987781 -0.09802803
vn -0.1211576 -0.987781 0.09802824
vn 0.1211577 -0.9877809 -0.09802832
vn 0.6333646 -0.7663691 0.1073679
vn 0.6333641 -0.7663693 -0.1073678
vn 0.1431696 -0.7928668 -0.5923384
vn -0.1431706 -0.7928659 -0.5923392
vn 0.143171 -0.7928662 0.5923389
vn -0.1431699 -0.7928663 0.5923388
vn -0.6333639 -0.7663695 0.1073678
vn -0.6333643 -0.7663693 -0.1073676
vn 0.5028748 -0.7499412 -0.4297735
vn -0.5028754 -0.7499405 -0.4297737
vn -0.5028749 -0.7499411 0.4297734
vn 0.5028756 -0.7499406 0.4297735
vn -0.1158776 0.9889395 0.0925805
vn 0.1158748 0.9889397 -0.09258119
vn 0.1158744 0.9889398 0.09258018
vn -0.1158753 0.9889397 -0.09258085
vn -0.1029023 0.878185 -0.4671214
vn 0.1029027 0.8781836 -0.4671239
vn 0.5168082 0.8525369 -0.07803915
vn 0.5168077 0.8525372 0.07803877
vn -0.5168098 0.8525359 0.07803911
vn -0.5168087 0.8525365 -0.07803956
vn -0.1029048 0.878182 0.4671263
vn 0.1029049 0.8781822 0.4671259
vn 0.396792 0.8548868 -0.3342523
vn -0.3967956 0.8548847 -0.3342532
vn -0.3967941 0.8548851 0.3342543
vn 0.3967936 0.8548855 0.3342536
vn 0.5028748 -0.7499412 -0.4297735
vn 0.1990524 -0.2720168 -0.9414803
vn 0.1431696 -0.7928668 -0.5923384
vn 0.7175027 -0.2556972 -0.6479266
vn -0.1990538 -0.2720155 -0.9414804
vn -0.1431706 -0.7928659 -0.5923392
vn 0.1864488 0.396382 -0.898954
vn -0.1864592 0.3963811 -0.8989521
vn 0.688779 0.3699072 -0.6234999
vn -0.6887867 0.3699034 -0.6234937
vn -0.7175034 -0.255696 -0.6479263
vn -0.9586964 -0.2433227 -0.1472928
vn -0.5028754 -0.7499405 -0.4297737
vn -0.6333643 -0.7663693 -0.1073676
vn -0.6333639 -0.7663695 0.1073678
vn -0.9586962 -0.2433231 0.1472936
vn -0.9193029 0.3685295 -0.1380868
vn -0.9193027 0.3685302 0.1380867
vn -0.688781 0.3699055 0.6234988
vn -0.7175025 -0.255697 0.6479267
vn -0.1990526 -0.272016 0.9414805
vn -0.5028749 -0.7499411 0.4297734
vn -0.1431699 -0.7928663 0.5923388
vn 0.143171 -0.7928662 0.5923389
vn 0.1990538 -0.2720158 0.9414803
vn -0.1864511 0.3963795 0.8989546
vn 0.186452 0.3963791 0.8989545
vn 0.6887816 0.369905 0.6234983
vn 0.7175032 -0.2556965 0.6479263
vn -0.3967941 0.8548851 0.3342543
vn -0.5168098 0.8525359 0.07803911
vn -0.5168087 0.8525365 -0.07803956
vn 0.3967936 0.8548855 0.3342536
vn 0.1029049 0.8781822 0.4671259
vn -0.1029048 0.878182 0.4671263
vn 0.5028756 -0.7499406 0.4297735
vn -0.3967956 0.8548847 -0.3342532
vn -0.1029023 0.878185 -0.4671214
vn 0.1029027 0.8781836 -0.4671239
vn 0.396792 0.8548868 -0.3342523
vn 0.9193027 0.3685304 -0.1380864
vn 0.9586963 -0.243323 -0.1472935
vn 0.9193029 0.3685302 0.138086
vn 0.9586964 -0.2433227 0.1472929
vn 0.6333641 -0.7663693 -0.1073678
vn 0.6333646 -0.7663691 0.1073679
vn 0.5028756 -0.7499406 0.4297735
vn 0.7175032 -0.2556965 0.6479263
vn 0.6887816 0.369905 0.6234983
vn 0.5168082 0.8525369 -0.07803915
vn 0.5168077 0.8525372 0.07803877
vn 0.3967936 0.8548855 0.3342536
g Dot_9_0
f 3/3/3 2/2/2 1/1/1
f 4/4/4 1/1/1 2/2/2
f 1/1/1 4/4/4 5/5/5
f 6/6/6 5/5/5 4/4/4
f 4/4/4 2/2/2 7/7/7
f 8/8/8 7/7/7 2/2/2
f 1/1/1 9/9/9 3/3/3
f 10/10/10 3/3/3 9/9/9
f 3/3/3 11/11/11 2/2/2
f 12/12/12 2/2/2 11/11/11
f 4/4/4 7/7/7 13/13/13
f 6/6/6 4/4/4 13/13/13
f 2/2/2 12/12/12 14/14/14
f 8/8/8 2/2/2 14/14/14
f 3/3/3 10/10/10 15/15/15
f 11/11/11 3/3/3 15/15/15
f 1/1/1 5/5/5 16/16/16
f 9/9/9 1/1/1 16/16/16
f 19/19/19 18/18/18 17/17/17
f 20/20/20 17/17/17 18/18/18
f 20/20/20 18/18/18 21/21/21
f 22/22/22 21/21/21 18/18/18
f 18/18/18 19/19/19 23/23/23
f 24/24/24 23/23/23 19/19/19
f 17/17/17 20/20/20 25/25/25
f 26/26/26 25/25/25 20/20/20
f 17/17/17 27/27/27 19/19/19
f 28/28/28 19/19/19 27/27/27
f 18/18/18 23/23/23 29/29/29
f 22/22/22 18/18/18 29/29/29
f 20/20/20 21/21/21 30/30/30
f 26/26/26 20/20/20 30/30/30
f 17/17/17 25/25/25 31/31/31
f 27/27/27 17/17/17 31/31/31
f 19/19/19 28/28/28 32/32/32
f 24/24/24 19/19/19 32/32/32
f 35/35/35 34/34/34 33/33/33
f 36/36/36 33/33/33 34/34/34
f 34/34/34 35/35/35 37/37/37
f 38/38/38 37/37/37 35/35/35
f 34/34/34 37/37/37 39/39/39
f 40/40/40 39/39/39 37/37/37
f 39/39/39 41/41/41 34/34/34
f 36/36/36 34/34/34 41/41/41
f 40/40/40 37/37/37 42/42/42
f 43/43/43 42/42/42 37/37/37
f 43/43/43 44/44/44 42/42/42
f 43/43/43 45/45/45 44/44/44
f 43/43/43 37/37/37 45/45/45
f 38/38/38 45/45/45 37/37/37
f 46/46/46 44/44/44 45/45/45
f 46/46/46 47/47/47 44/44/44
f 48/48/48 44/44/44 47/47/47
f 44/44/44 48/48/48 49/49/49
f 49/49/49 42/42/42 44/44/44
f 50/50/50 49/49/49 48/48/48
f 50/50/50 48/48/48 51/51/51
f 52/52/52 51/51/51 48/48/48
f 52/52/52 53/53/53 51/51/51
f 52/52/52 54/54/54 53/53/53
f 52/52/52 48/48/48 54/54/54
f 47/47/47 54/54/54 48/48/48
f 55/55/55 53/53/53 54/54/54
f 55/55/55 56/56/56 53/53/53
f 57/57/57 53/53/53 56/56/56
f 58/58/58 51/51/51 53/53/53
f 53/53/53 57/57/57 58/58/58
f 59/59/59 58/58/58 57/57/57
f 59/59/59 57/57/57 60/60/60
f 61/61/61 60/60/60 57/57/57
f 51/51/51 62/62/62 50/50/50
f 51/51/51 58/58/58 62/62/62
f 63/63/63 50/50/50 62/62/62
f 49/49/49 50/50/50 64/64/64
f 63/63/63 64/64/64 50/50/50
f 60/60/60 65/65/65 59/59/59
f 66/66/66 59/59/59 65/65/65
f 58/58/58 59/59/59 67/67/67
f 66/66/66 67/67/67 59/59/59
f 67/67/67 62/62/62 58/58/58
f 61/61/61 57/57/57 68/68/68
f 56/56/56 68/68/68 57/57/57
f 64/64/64 69/69/69 49/49/49
f 42/42/42 49/49/49 69/69/69
f 42/42/42 69/69/69 40/40/40
f 70/70/70 40/40/40 69/69/69
f 40/40/40 70/70/70 39/39/39
f 71/71/71 39/39/39 70/70/70
f 71/71/71 72/72/72 39/39/39
f 41/41/41 39/39/39 72/72/72
f 41/41/41 72/72/72 73/73/73
f 73/73/73 74/74/74 41/41/41
f 36/36/36 41/41/41 74/74/74
f 73/73/73 75/75/75 74/74/74
f 76/76/76 74/74/74 75/75/75
f 74/74/74 76/76/76 77/77/77
f 78/78/78 77/77/77 76/76/76
f 78/78/78 76/76/76 79/79/79
f 80/80/80 79/79/79 76/76/76
f 75/75/75 81/81/81 76/76/76
f 80/80/80 76/76/76 81/81/81
f 82/82/82 73/73/73 72/72/72
f 75/75/75 73/73/73 83/83/83
f 82/82/82 83/83/83 73/73/73
f 36/36/36 74/74/74 33/33/33
f 77/77/77 33/33/33 74/74/74
f 81/81/81 75/75/75 84/84/84
f 83/83/83 84/84/84 75/75/75
