g Dot_7
v 2.896677 -2.266852 3.624492
v -2.896671 -2.266854 -3.624493
v -2.896666 -2.266853 3.624495
v 2.896672 -2.266853 -3.624496
v 3.252062 -2.168024 3.619548
v 3.252057 -2.168025 -3.619553
v 2.891316 -2.168025 -4.054389
v -2.891315 -2.168025 -4.054388
v 2.891321 -2.168024 4.054386
v -2.89131 -2.168025 4.054389
v -3.25205 -2.168025 3.619552
v -3.252056 -2.168026 -3.61955
v 3.155552 -2.155812 -3.938904
v -3.155551 -2.155813 -3.938902
v -3.155546 -2.155813 3.938903
v 3.155557 -2.155812 3.9389
v -2.896673 2.266814 3.624495
v 2.896672 2.266815 -3.624497
v 2.896677 2.266815 3.624492
v -2.896671 2.266814 -3.624493
v -2.891315 2.168506 -4.054388
v 2.891316 2.168507 -4.054389
v 3.252057 2.168508 -3.619554
v 3.252062 2.168508 3.619547
v -3.25205 2.168507 3.619551
v -3.252056 2.168506 -3.61955
v -2.89131 2.168507 4.054389
v 2.891321 2.168508 4.054386
v 3.155552 2.168423 -3.938905
v -3.155551 2.168422 -3.938902
v -3.155546 2.168423 3.938903
v 3.155557 2.168424 3.938899
v 3.155552 -2.155812 -3.938904
v 2.896672 -1.920854 -4.2142
v 2.891316 -2.168025 -4.054389
v 3.252057 -1.915933 -4.05439
v -2.896671 -1.920855 -4.214198
v -2.891315 -2.168025 -4.054388
v 2.896672 2.032573 -4.2142
v -2.896678 2.032572 -4.214199
v 3.252057 2.032537 -4.054391
v -3.252056 2.032536 -4.054386
v -3.252056 -1.915934 -4.054387
v -3.388408 -1.920855 -3.624492
v -3.155551 -2.155813 -3.938902
v -3.252056 -2.168026 -3.61955
v -3.25205 -2.168025 3.619552
v -3.388403 -1.920855 3.624496
v -3.388408 2.032572 -3.624492
v -3.388403 2.032573 3.624494
v -3.252051 2.032536 4.054388
v -3.252051 -1.915934 4.054389
v -2.896666 -1.920855 4.2142
v -3.155546 -2.155813 3.938903
v -2.89131 -2.168025 4.054389
v 2.891321 -2.168024 4.054386
v 2.896677 -1.920854 4.214197
v -2.896666 2.032573 4.214198
v 2.896677 2.032574 4.214197
v 3.252062 2.032537 4.054384
v 3.252062 -1.915933 4.054386
v -3.155546 2.168423 3.938903
v -3.25205 2.168507 3.619551
v -3.252056 2.168506 -3.61955
v 3.155557 2.168424 3.938899
v 2.891321 2.168508 4.054386
v -2.89131 2.168507 4.054389
v 3.155557 -2.155812 3.9389
v -3.155551 2.168422 -3.938902
v -2.891315 2.168506 -4.054388
v 2.891316 2.168507 -4.054389
v 3.155552 2.168423 -3.938905
v 3.388409 2.032573 -3.624498
v 3.388409 -1.920854 -3.624497
v 3.388414 2.032574 3.624491
v 3.388414 -1.920854 3.624491
v 3.252057 -2.168025 -3.619553
v 3.252062 -2.168024 3.619548
v 3.155557 -2.155812 3.9389
v 3.252062 -1.915933 4.054386
v 3.252062 2.032537 4.054384
v 3.252057 2.168508 -3.619554
v 3.252062 2.168508 3.619547
v 3.155557 2.168424 3.938899
vt 0.2819074 0.01302131
vt 0.3731756 0.127767
vt 0.3734128 0.01321073
vt 0.2816705 0.1275776
vt 0.2760887 0.01303281
vt 0.2758519 0.127542
vt 0.2816114 0.1345367
vt 0.3732059 0.1347262
vt 0.281877 0.006062046
vt 0.3734718 0.006251588
vt 0.3792315 0.01324625
vt 0.3789943 0.1277555
vt 0.2773788 0.1326605
vt 0.3774461 0.1328677
vt 0.3777045 0.008127704
vt 0.2776366 0.007920757
vt 0.7538704 0.6400731
vt 0.6572708 0.5190809
vt 0.6572707 0.6400729
vt 0.7538702 0.5190811
vt 0.753939 0.5117303
vt 0.657202 0.5117303
vt 0.6511382 0.5191529
vt 0.6511381 0.6400009
vt 0.7600029 0.6400011
vt 0.7600028 0.5191529
vt 0.7539393 0.6474237
vt 0.6572017 0.6474236
vt 0.652695 0.5137467
vt 0.7584461 0.5137469
vt 0.7584464 0.6454073
vt 0.6526946 0.6454072
vt 0.8399794 0.004132939
vt 0.8366122 0.01009143
vt 0.8366122 0.004132939
vt 0.8399794 0.01009143
vt 0.6962689 0.01009143
vt 0.6962689 0.004132939
vt 0.8366122 0.07906371
vt 0.6962689 0.07906371
vt 0.8399794 0.07906371
vt 0.6925756 0.07906371
vt 0.6925756 0.01009143
vt 0.6883295 0.01009143
vt 0.6925756 0.004132939
vt 0.6883295 0.004132939
vt 0.5457566 0.004132939
vt 0.5457566 0.01009143
vt 0.6883295 0.07906371
vt 0.5457566 0.07906371
vt 0.5417815 0.07906371
vt 0.5417815 0.01009143
vt 0.53834 0.01009143
vt 0.5417815 0.004132939
vt 0.53834 0.004132939
vt 0.3937278 0.004132939
vt 0.3937278 0.01009142
vt 0.53834 0.07906371
vt 0.3937278 0.07906371
vt 0.3904912 0.07906371
vt 0.3904912 0.01009142
vt 0.5417815 0.08502179
vt 0.5457566 0.08502179
vt 0.6883295 0.08502179
vt 0.3904912 0.08502178
vt 0.3937278 0.08502178
vt 0.53834 0.08502179
vt 0.3904912 0.00413294
vt 0.6925756 0.08502179
vt 0.6962689 0.08502179
vt 0.8366122 0.08502179
vt 0.8399794 0.08502179
vt 0.8438554 0.07906371
vt 0.8438554 0.01009143
vt 0.9916103 0.07906371
vt 0.9916103 0.01009143
vt 0.8438554 0.004132939
vt 0.9916103 0.004132939
vt 0.9953361 0.004132939
vt 0.9953361 0.01009143
vt 0.9953361 0.07906371
vt 0.8438554 0.08502179
vt 0.9916103 0.08502179
vt 0.9953361 0.08502179
vn 0.121158 -0.9877809 0.09802827
vn -0.1211576 -0.987781 -0.09802803
vn -0.1211576 -0.987781 0.09802824
vn 0.1211577 -0.9877809 -0.09802832
vn 0.6333646 -0.7663691 0.1073679
vn 0.6333641 -0.7663693 -0.1073678
vn 0.1431696 -0.7928668 -0.5923384
vn -0.1431706 -0.7928659 -0.5923392
vn 0.143171 -0.7928662 0.5923389
vn -0.1431699 -0.7928663 0.5923388
vn -0.6333639 -0.7663695 0.1073678
vn -0.6333643 -0.7663693 -0.1073676
vn 0.5028748 -0.7499412 -0.4297735
vn -0.5028754 -0.7499405 -0.4297737
vn -0.5028749 -0.7499411 0.4297734
vn 0.5028756 -0.7499406 0.4297735
vn -0.1158775 0.9889395 0.09258046
vn 0.1158746 0.9889397 -0.09258126
vn 0.1158744 0.9889398 0.09258021
vn -0.1158754 0.9889397 -0.09258088
vn -0.1029023 0.878185 -0.4671214
vn 0.1029027 0.8781836 -0.4671239
vn 0.5168076 0.8525373 -0.07803916
vn 0.5168073 0.8525376 0.07803844
vn -0.5168098 0.852536 0.07803901
vn -0.5168078 0.8525371 -0.07803892
vn -0.1029044 0.8781821 0.4671263
vn 0.1029049 0.8781834 0.4671236
vn 0.3967929 0.8548855 -0.3342545
vn -0.3967955 0.8548849 -0.3342533
vn -0.3967949 0.854884 0.3342561
vn 0.3967943 0.8548851 0.3342538
vn 0.5028748 -0.7499412 -0.4297735
vn 0.1990525 -0.2720166 -0.9414803
vn 0.1431696 -0.7928668 -0.5923384
vn 0.7175026 -0.255697 -0.6479267
vn -0.1990538 -0.2720155 -0.9414804
vn -0.1431706 -0.7928659 -0.5923392
vn 0.1864511 0.3963812 -0.8989538
vn -0.1864592 0.3963811 -0.8989521
vn 0.6887814 0.3699048 -0.6234986
vn -0.6887867 0.3699032 -0.6234938
vn -0.7175034 -0.255696 -0.6479263
vn -0.9586964 -0.2433227 -0.1472928
vn -0.5028754 -0.7499405 -0.4297737
vn -0.6333643 -0.7663693 -0.1073676
vn -0.6333639 -0.7663695 0.1073678
vn -0.9586962 -0.2433231 0.1472936
vn -0.9193026 0.3685305 -0.1380869
vn -0.9193027 0.3685302 0.1380871
vn -0.6887829 0.3699033 0.6234979
vn -0.7175026 -0.2556968 0.6479267
vn -0.1990527 -0.2720158 0.9414805
vn -0.5028749 -0.7499411 0.4297734
vn -0.1431699 -0.7928663 0.5923388
vn 0.143171 -0.7928662 0.5923389
vn 0.1990539 -0.2720158 0.9414802
vn -0.1864526 0.3963788 0.8989546
vn 0.1864549 0.3963803 0.8989534
vn 0.6887839 0.369904 0.6234964
vn 0.7175032 -0.2556964 0.6479263
vn -0.3967949 0.854884 0.3342561
vn -0.5168098 0.852536 0.07803901
vn -0.5168078 0.8525371 -0.07803892
vn 0.3967943 0.8548851 0.3342538
vn 0.1029049 0.8781834 0.4671236
vn -0.1029044 0.8781821 0.4671263
vn 0.5028756 -0.7499406 0.4297735
vn -0.3967955 0.8548849 -0.3342533
vn -0.1029023 0.878185 -0.4671214
vn 0.1029027 0.8781836 -0.4671239
vn 0.3967929 0.8548855 -0.3342545
vn 0.9193025 0.3685303 -0.1380875
vn 0.9586963 -0.243323 -0.1472936
vn 0.9193027 0.3685302 0.1380872
vn 0.9586964 -0.2433227 0.1472929
vn 0.6333641 -0.7663693 -0.1073678
vn 0.6333646 -0.7663691 0.1073679
vn 0.5028756 -0.7499406 0.4297735
vn 0.7175032 -0.2556964 0.6479263
vn 0.6887839 0.369904 0.6234964
vn 0.5168076 0.8525373 -0.07803916
vn 0.5168073 0.8525376 0.07803844
vn 0.3967943 0.8548851 0.3342538
g Dot_7_0
f 3/3/3 2/2/2 1/1/1
f 4/4/4 1/1/1 2/2/2
f 1/1/1 4/4/4 5/5/5
f 6/6/6 5/5/5 4/4/4
f 4/4/4 2/2/2 7/7/7
f 8/8/8 7/7/7 2/2/2
f 1/1/1 9/9/9 3/3/3
f 10/10/10 3/3/3 9/9/9
f 3/3/3 11/11/11 2/2/2
f 12/12/12 2/2/2 11/11/11
f 4/4/4 7/7/7 13/13/13
f 6/6/6 4/4/4 13/13/13
f 2/2/2 12/12/12 14/14/14
f 8/8/8 2/2/2 14/14/14
f 3/3/3 10/10/10 15/15/15
f 11/11/11 3/3/3 15/15/15
f 1/1/1 5/5/5 16/16/16
f 9/9/9 1/1/1 16/16/16
f 19/19/19 18/18/18 17/17/17
f 20/20/20 17/17/17 18/18/18
f 20/20/20 18/18/18 21/21/21
f 22/22/22 21/21/21 18/18/18
f 18/18/18 19/19/19 23/23/23
f 24/24/24 23/23/23 19/19/19
f 17/17/17 20/20/20 25/25/25
f 26/26/26 25/25/25 20/20/20
f 17/17/17 27/27/27 19/19/19
f 28/28/28 19/19/19 27/27/27
f 18/18/18 23/23/23 29/29/29
f 22/22/22 18/18/18 29/29/29
f 20/20/20 21/21/21 30/30/30
f 26/26/26 20/20/20 30/30/30
f 17/17/17 25/25/25 31/31/31
f 27/27/27 17/17/17 31/31/31
f 19/19/19 28/28/28 32/32/32
f 24/24/24 19/19/19 32/32/32
f 35/35/35 34/34/34 33/33/33
f 36/36/36 33/33/33 34/34/34
f 34/34/34 35/35/35 37/37/37
f 38/38/38 37/37/37 35/35/35
f 34/34/34 37/37/37 39/39/39
f 40/40/40 39/39/39 37/37/37
f 39/39/39 41/41/41 34/34/34
f 36/36/36 34/34/34 41/41/41
f 40/40/40 37/37/37 42/42/42
f 43/43/43 42/42/42 37/37/37
f 43/43/43 44/44/44 42/42/42
f 43/43/43 45/45/45 44/44/44
f 43/43/43 37/37/37 45/45/45
f 38/38/38 45/45/45 37/37/37
f 46/46/46 44/44/44 45/45/45
f 46/46/46 47/47/47 44/44/44
f 48/48/48 44/44/44 47/47/47
f 44/44/44 48/48/48 49/49/49
f 49/49/49 42/42/42 44/44/44
f 50/50/50 49/49/49 48/48/48
f 50/50/50 48/48/48 51/51/51
f 52/52/52 51/51/51 48/48/48
f 52/52/52 53/53/53 51/51/51
f 52/52/52 54/54/54 53/53/53
f 52/52/52 48/48/48 54/54/54
f 47/47/47 54/54/54 48/48/48
f 55/55/55 53/53/53 54/54/54
f 55/55/55 56/56/56 53/53/53
f 57/57/57 53/53/53 56/56/56
f 58/58/58 51/51/51 53/53/53
f 53/53/53 57/57/57 58/58/58
f 59/59/59 58/58/58 57/57/57
f 59/59/59 57/57/57 60/60/60
f 61/61/61 60/60/60 57/57/57
f 51/51/51 62/62/62 50/50/50
f 51/51/51 58/58/58 62/62/62
f 63/63/63 50/50/50 62/62/62
f 49/49/49 50/50/50 64/64/64
f 63/63/63 64/64/64 50/50/50
f 60/60/60 65/65/65 59/59/59
f 66/66/66 59/59/59 65/65/65
f 58/58/58 59/59/59 67/67/67
f 66/66/66 67/67/67 59/59/59
f 67/67/67 62/62/62 58/58/58
f 61/61/61 57/57/57 68/68/68
f 56/56/56 68/68/68 57/57/57
f 64/64/64 69/69/69 49/49/49
f 42/42/42 49/49/49 69/69/69
f 42/42/42 69/69/69 40/40/40
f 70/70/70 40/40/40 69/69/69
f 40/40/40 70/70/70 39/39/39
f 71/71/71 39/39/39 70/70/70
f 71/71/71 72/72/72 39/39/39
f 41/41/41 39/39/39 72/72/72
f 41/41/41 72/72/72 73/73/73
f 73/73/73 74/74/74 41/41/41
f 36/36/36 41/41/41 74/74/74
f 73/73/73 75/75/75 74/74/74
f 76/76/76 74/74/74 75/75/75
f 74/74/74 76/76/76 77/77/77
f 78/78/78 77/77/77 76/76/76
f 78/78/78 76/76/76 79/79/79
f 80/80/80 79/79/79 76/76/76
f 75/75/75 81/81/81 76/76/76
f 80/80/80 76/76/76 81/81/81
f 82/82/82 73/73/73 72/72/72
f 75/75/75 73/73/73 83/83/83
f 82/82/82 83/83/83 73/73/73
f 36/36/36 74/74/74 33/33/33
f 77/77/77 33/33/33 74/74/74
f 81/81/81 75/75/75 84/84/84
f 83/83/83 84/84/84 75/75/75
