g Dragon_Blank
v 2.871167 -2.265973 3.52226
v -2.871163 -2.265974 -3.522261
v -2.871157 -2.265974 3.522261
v 2.871162 -2.265973 -3.522261
v 3.160337 -2.17031 3.517455
v 3.160347 -2.170311 -3.517458
v 2.871139 -2.170311 -3.940028
v -2.87114 -2.170312 -3.94003
v -2.871135 -2.170312 3.940029
v 2.871144 -2.17031 3.940028
v -3.160319 -2.170312 3.517458
v -3.160309 -2.170312 -3.517453
v 3.066551 -2.170143 -3.827803
v -3.066529 -2.170144 -3.827798
v -3.066539 -2.170143 3.827802
v 3.066556 -2.170142 3.827799
v -2.871539 2.265934 3.624495
v 2.871567 2.265935 -3.624495
v 2.871572 2.265935 3.624493
v -2.871544 2.265934 -3.624493
v -2.871521 2.167106 -4.054387
v 2.871536 2.167107 -4.054389
v 3.25206 2.167107 -3.619551
v 3.252065 2.167108 3.619548
v -3.252047 2.167106 3.619552
v -3.252053 2.167106 -3.619548
v 2.871541 2.167107 4.054389
v -2.871516 2.167106 4.054389
v 3.155555 2.154894 -3.938904
v -3.155548 2.154892 -3.938901
v -3.155543 2.154893 3.938904
v 3.15556 2.154894 3.9389
v 3.066551 -2.170143 -3.827803
v 2.871567 -1.921735 -4.2142
v 2.871139 -2.170311 -3.940028
v 3.25206 -1.916813 -4.054389
v -2.871544 -1.921736 -4.214196
v -2.87114 -2.170312 -3.94003
v 3.25206 1.915015 -4.054389
v 2.871567 1.919937 -4.2142
v -2.871544 1.919936 -4.214196
v -3.252053 -1.916814 -4.054387
v -3.252053 1.915014 -4.054385
v -3.388405 1.919935 -3.624491
v -3.388405 -1.921736 -3.624491
v -3.066529 -2.170144 -3.827798
v -3.160309 -2.170312 -3.517453
v -3.160319 -2.170312 3.517458
v -3.3884 -1.921735 3.624497
v -3.3884 1.919936 3.624497
v -3.252048 1.915014 4.05439
v -3.252048 -1.916814 4.05439
v -2.871539 -1.921735 4.2142
v -3.066539 -2.170143 3.827802
v -2.871135 -2.170312 3.940029
v 2.871572 -1.921734 4.214199
v 2.871144 -2.17031 3.940028
v -2.871539 1.919936 4.2142
v 2.871572 1.919937 4.214199
v 3.252065 -1.916813 4.054387
v 3.252065 1.915016 4.054387
v 3.066556 -2.170142 3.827799
v -3.203792 2.043995 3.996647
v -3.367358 2.044067 3.622024
v -3.155543 2.154893 3.938904
v -3.252047 2.167106 3.619552
v -3.367348 2.044066 -3.62202
v -3.252053 2.167106 -3.619548
v -3.155548 2.154892 -3.938901
v -3.203804 2.043994 -3.996644
v -2.871521 2.167106 -4.054387
v -2.871529 2.044066 -4.134289
v 2.871551 2.044067 -4.134295
v 2.871536 2.167107 -4.054389
v 3.203819 2.043995 -3.996647
v 3.155555 2.154894 -3.938904
v 3.367378 2.044067 -3.622023
v 3.25206 2.167107 -3.619551
v 3.367368 2.044068 3.622018
v 3.252065 2.167108 3.619548
v 3.15556 2.154894 3.9389
v 3.203816 2.043996 3.996644
v 3.388412 1.919937 -3.624495
v 3.388412 -1.921734 -3.624495
v 3.388417 1.919937 3.624492
v 3.388417 -1.921734 3.624492
v 3.160347 -2.170311 -3.517458
v 3.160337 -2.17031 3.517455
v 3.066556 -2.170142 3.827799
v 3.252065 -1.916813 4.054387
v 3.252065 1.915016 4.054387
v 2.871541 2.167107 4.054389
v 3.203816 2.043996 3.996644
v 2.871556 2.044068 4.134293
v 3.15556 2.154894 3.9389
v -2.871524 2.044067 4.134294
v -2.871516 2.167106 4.054389
vt 0.2819074 0.01302131
vt 0.3731756 0.127767
vt 0.3734128 0.01321073
vt 0.2816705 0.1275776
vt 0.2760887 0.01303281
vt 0.2758519 0.127542
vt 0.2816114 0.1345367
vt 0.3732059 0.1347262
vt 0.3734718 0.006251588
vt 0.281877 0.006062046
vt 0.3792315 0.01324625
vt 0.3789943 0.1277555
vt 0.2773788 0.1326605
vt 0.3774461 0.1328677
vt 0.3777045 0.008127704
vt 0.2776366 0.007920757
vt 0.7490493 0.3076796
vt 0.6524497 0.1866874
vt 0.6524496 0.3076794
vt 0.7490491 0.1866876
vt 0.7491179 0.1793368
vt 0.6523808 0.1793368
vt 0.6463171 0.1867594
vt 0.6463169 0.3076074
vt 0.7551817 0.3076076
vt 0.7551817 0.1867594
vt 0.6523806 0.3150301
vt 0.7491182 0.3150302
vt 0.6478739 0.1813533
vt 0.7536249 0.1813534
vt 0.7536253 0.3130138
vt 0.6478735 0.3130137
vt 0.8399794 0.004132939
vt 0.8366122 0.01009143
vt 0.8366122 0.004132939
vt 0.8399794 0.01009143
vt 0.6962689 0.01009143
vt 0.6962689 0.004132939
vt 0.8399794 0.07906371
vt 0.8366122 0.07906371
vt 0.6962689 0.07906371
vt 0.6925756 0.01009143
vt 0.6925756 0.07906371
vt 0.6883295 0.07906371
vt 0.6883295 0.01009143
vt 0.6925756 0.004132939
vt 0.6883295 0.004132939
vt 0.5457566 0.004132939
vt 0.5457566 0.01009143
vt 0.5457566 0.07906371
vt 0.5417815 0.07906371
vt 0.5417815 0.01009143
vt 0.53834 0.01009143
vt 0.5417815 0.004132939
vt 0.53834 0.004132939
vt 0.3937278 0.01009142
vt 0.3937278 0.004132939
vt 0.53834 0.07906371
vt 0.3937278 0.07906371
vt 0.3904912 0.01009142
vt 0.3904912 0.07906371
vt 0.3904912 0.00413294
vt 0.5417815 0.08204275
vt 0.5457566 0.08204275
vt 0.5417815 0.08502179
vt 0.5457566 0.08502179
vt 0.6883295 0.08204275
vt 0.6883295 0.08502179
vt 0.6925756 0.08502179
vt 0.6925756 0.08204275
vt 0.6962689 0.08502179
vt 0.6962689 0.08204275
vt 0.8366122 0.08204275
vt 0.8366122 0.08502179
vt 0.8399794 0.08204275
vt 0.8399794 0.08502179
vt 0.8438554 0.08204275
vt 0.8438554 0.08502179
vt 0.9916103 0.08204275
vt 0.9916103 0.08502179
vt 0.9953361 0.08502179
vt 0.9953361 0.08204275
vt 0.8438554 0.07906371
vt 0.8438554 0.01009143
vt 0.9916103 0.07906371
vt 0.9916103 0.01009143
vt 0.8438554 0.004132939
vt 0.9916103 0.004132939
vt 0.9953361 0.004132939
vt 0.9953361 0.01009143
vt 0.9953361 0.07906371
vt 0.3937278 0.08502178
vt 0.3904912 0.08204275
vt 0.3937278 0.08204275
vt 0.3904912 0.08502178
vt 0.53834 0.08204275
vt 0.53834 0.08502179
vn 0.1413387 -0.9856337 0.09246477
vn -0.1413504 -0.9856319 -0.09246483
vn -0.1413416 -0.9856332 0.09246476
vn 0.1413314 -0.9856346 -0.09246547
vn 0.5449095 -0.8355489 0.07022587
vn 0.5449169 -0.8355431 -0.07023691
vn 0.1423986 -0.862025 -0.4864519
vn -0.1230724 -0.8697808 -0.4778436
vn -0.142413 -0.8620189 0.4864586
vn 0.1230618 -0.8697835 0.4778414
vn -0.5449119 -0.8355473 0.07022645
vn -0.5449043 -0.8355523 -0.07022566
vn 0.4066379 -0.8525403 -0.3283605
vn -0.4101387 -0.8568256 -0.3124678
vn -0.4066432 -0.8525395 0.3283561
vn 0.4101379 -0.8568207 0.3124822
vn -0.1123622 0.9888324 0.09790401
vn 0.1123671 0.9888319 -0.09790424
vn 0.1123668 0.9888319 0.09790388
vn -0.1123631 0.9888322 -0.09790415
vn -0.1310392 0.7961171 -0.5907844
vn 0.1310361 0.7961258 -0.5907734
vn 0.5240608 0.8464419 -0.09432088
vn 0.5240896 0.8464235 0.09432552
vn -0.5240706 0.8464357 0.09432245
vn -0.5240998 0.8464172 -0.09432603
vn 0.1310405 0.7961223 0.5907772
vn -0.1310395 0.7961219 0.590778
vn 0.4584641 0.7748202 -0.4352749
vn -0.458486 0.7748064 -0.4352765
vn -0.4584849 0.7747996 0.4352899
vn 0.458485 0.7748073 0.4352759
vn 0.4066379 -0.8525403 -0.3283605
vn 0.1836126 -0.3900156 -0.902316
vn 0.1423986 -0.862025 -0.4864519
vn 0.6797575 -0.3750341 -0.6303009
vn -0.178485 -0.3849186 -0.9055278
vn -0.1230724 -0.8697808 -0.4778436
vn 0.7109891 0.2434858 -0.6597039
vn 0.1863693 0.270138 -0.9446121
vn -0.186363 0.2701435 -0.9446118
vn -0.6849193 -0.368452 -0.6285926
vn -0.7109842 0.2434988 -0.6597043
vn -0.9801046 0.09933604 -0.1718357
vn -0.9192969 -0.3642443 -0.1490616
vn -0.4101387 -0.8568256 -0.3124678
vn -0.5449043 -0.8355523 -0.07022566
vn -0.5449119 -0.8355473 0.07022645
vn -0.9193018 -0.3642312 0.1490635
vn -0.9801072 0.09928807 0.1718484
vn -0.7109838 0.2435131 0.6596994
vn -0.6797512 -0.3750353 0.630307
vn -0.1836042 -0.3900148 0.9023181
vn -0.4066432 -0.8525395 0.3283561
vn -0.142413 -0.8620189 0.4864586
vn 0.178496 -0.3849234 0.9055237
vn 0.1230618 -0.8697835 0.4778414
vn -0.1863612 0.2701399 0.9446132
vn 0.1863702 0.2701391 0.9446115
vn 0.6849231 -0.3684489 0.6285904
vn 0.7109895 0.2435008 0.6596978
vn 0.4101379 -0.8568207 0.3124822
vn -0.6221433 0.5120382 0.5922454
vn -0.8908861 0.4204799 0.1718101
vn -0.4584849 0.7747996 0.4352899
vn -0.5240706 0.8464357 0.09432245
vn -0.8908745 0.4205117 -0.1717924
vn -0.5240998 0.8464172 -0.09432603
vn -0.458486 0.7748064 -0.4352765
vn -0.6221557 0.5120346 -0.5922354
vn -0.1310392 0.7961171 -0.5907844
vn -0.1692904 0.5336314 -0.8286002
vn 0.169297 0.5336375 -0.8285949
vn 0.1310361 0.7961258 -0.5907734
vn 0.622164 0.5120273 -0.5922332
vn 0.4584641 0.7748202 -0.4352749
vn 0.8908924 0.4204682 -0.1718055
vn 0.5240608 0.8464419 -0.09432088
vn 0.8908803 0.4204972 0.1717969
vn 0.5240896 0.8464235 0.09432552
vn 0.458485 0.7748073 0.4352759
vn 0.6221604 0.5120372 0.5922284
vn 0.9801107 0.09925656 -0.1718461
vn 0.9193047 -0.3642216 -0.149068
vn 0.9801062 0.09931191 0.1718407
vn 0.9193019 -0.3642309 0.149063
vn 0.5449169 -0.8355431 -0.07023691
vn 0.5449095 -0.8355489 0.07022587
vn 0.4101379 -0.8568207 0.3124822
vn 0.6849231 -0.3684489 0.6285904
vn 0.7109895 0.2435008 0.6596978
vn 0.1310405 0.7961223 0.5907772
vn 0.6221604 0.5120372 0.5922284
vn 0.1693005 0.5336366 0.8285949
vn 0.458485 0.7748073 0.4352759
vn -0.1692908 0.5336371 0.8285965
vn -0.1310395 0.7961219 0.590778
g Dragon_Blank_0
f 3/3/3 2/2/2 1/1/1
f 4/4/4 1/1/1 2/2/2
f 1/1/1 4/4/4 5/5/5
f 6/6/6 5/5/5 4/4/4
f 4/4/4 2/2/2 7/7/7
f 8/8/8 7/7/7 2/2/2
f 3/3/3 1/1/1 9/9/9
f 10/10/10 9/9/9 1/1/1
f 3/3/3 11/11/11 2/2/2
f 12/12/12 2/2/2 11/11/11
f 4/4/4 7/7/7 13/13/13
f 6/6/6 4/4/4 13/13/13
f 2/2/2 12/12/12 14/14/14
f 8/8/8 2/2/2 14/14/14
f 3/3/3 9/9/9 15/15/15
f 11/11/11 3/3/3 15/15/15
f 1/1/1 5/5/5 16/16/16
f 10/10/10 1/1/1 16/16/16
f 19/19/19 18/18/18 17/17/17
f 20/20/20 17/17/17 18/18/18
f 20/20/20 18/18/18 21/21/21
f 22/22/22 21/21/21 18/18/18
f 18/18/18 19/19/19 23/23/23
f 24/24/24 23/23/23 19/19/19
f 17/17/17 20/20/20 25/25/25
f 26/26/26 25/25/25 20/20/20
f 19/19/19 17/17/17 27/27/27
f 28/28/28 27/27/27 17/17/17
f 18/18/18 23/23/23 29/29/29
f 22/22/22 18/18/18 29/29/29
f 20/20/20 21/21/21 30/30/30
f 26/26/26 20/20/20 30/30/30
f 17/17/17 25/25/25 31/31/31
f 28/28/28 17/17/17 31/31/31
f 19/19/19 27/27/27 32/32/32
f 24/24/24 19/19/19 32/32/32
f 35/35/35 34/34/34 33/33/33
f 36/36/36 33/33/33 34/34/34
f 34/34/34 35/35/35 37/37/37
f 38/38/38 37/37/37 35/35/35
f 36/36/36 34/34/34 39/39/39
f 40/40/40 39/39/39 34/34/34
f 34/34/34 37/37/37 40/40/40
f 41/41/41 40/40/40 37/37/37
f 37/37/37 42/42/42 41/41/41
f 37/37/37 38/38/38 42/42/42
f 43/43/43 41/41/41 42/42/42
f 43/43/43 42/42/42 44/44/44
f 45/45/45 44/44/44 42/42/42
f 42/42/42 46/46/46 45/45/45
f 46/46/46 42/42/42 38/38/38
f 47/47/47 45/45/45 46/46/46
f 47/47/47 48/48/48 45/45/45
f 49/49/49 45/45/45 48/48/48
f 45/45/45 49/49/49 44/44/44
f 50/50/50 44/44/44 49/49/49
f 50/50/50 49/49/49 51/51/51
f 52/52/52 51/51/51 49/49/49
f 52/52/52 53/53/53 51/51/51
f 52/52/52 54/54/54 53/53/53
f 52/52/52 49/49/49 54/54/54
f 48/48/48 54/54/54 49/49/49
f 55/55/55 53/53/53 54/54/54
f 53/53/53 55/55/55 56/56/56
f 57/57/57 56/56/56 55/55/55
f 58/58/58 51/51/51 53/53/53
f 53/53/53 56/56/56 58/58/58
f 59/59/59 58/58/58 56/56/56
f 56/56/56 60/60/60 59/59/59
f 56/56/56 57/57/57 60/60/60
f 61/61/61 59/59/59 60/60/60
f 62/62/62 60/60/60 57/57/57
f 51/51/51 63/63/63 50/50/50
f 64/64/64 50/50/50 63/63/63
f 63/63/63 65/65/65 64/64/64
f 66/66/66 64/64/64 65/65/65
f 64/64/64 66/66/66 67/67/67
f 68/68/68 67/67/67 66/66/66
f 68/68/68 69/69/69 67/67/67
f 70/70/70 67/67/67 69/69/69
f 69/69/69 71/71/71 70/70/70
f 72/72/72 70/70/70 71/71/71
f 72/72/72 71/71/71 73/73/73
f 74/74/74 73/73/73 71/71/71
f 73/73/73 74/74/74 75/75/75
f 76/76/76 75/75/75 74/74/74
f 75/75/75 76/76/76 77/77/77
f 78/78/78 77/77/77 76/76/76
f 77/77/77 78/78/78 79/79/79
f 80/80/80 79/79/79 78/78/78
f 80/80/80 81/81/81 79/79/79
f 82/82/82 79/79/79 81/81/81
f 70/70/70 72/72/72 43/43/43
f 41/41/41 43/43/43 72/72/72
f 41/41/41 72/72/72 40/40/40
f 73/73/73 40/40/40 72/72/72
f 77/77/77 83/83/83 75/75/75
f 39/39/39 75/75/75 83/83/83
f 40/40/40 73/73/73 39/39/39
f 75/75/75 39/39/39 73/73/73
f 83/83/83 84/84/84 39/39/39
f 36/36/36 39/39/39 84/84/84
f 83/83/83 85/85/85 84/84/84
f 83/83/83 77/77/77 85/85/85
f 79/79/79 85/85/85 77/77/77
f 79/79/79 82/82/82 85/85/85
f 86/86/86 84/84/84 85/85/85
f 84/84/84 86/86/86 87/87/87
f 88/88/88 87/87/87 86/86/86
f 88/88/88 86/86/86 89/89/89
f 90/90/90 89/89/89 86/86/86
f 86/86/86 85/85/85 90/90/90
f 91/91/91 90/90/90 85/85/85
f 91/91/91 85/85/85 82/82/82
f 36/36/36 84/84/84 33/33/33
f 87/87/87 33/33/33 84/84/84
f 43/43/43 44/44/44 70/70/70
f 67/67/67 70/70/70 44/44/44
f 67/67/67 44/44/44 64/64/64
f 50/50/50 64/64/64 44/44/44
f 94/94/94 93/93/93 92/92/92
f 95/95/95 92/92/92 93/93/93
f 94/94/94 92/92/92 96/96/96
f 97/97/97 96/96/96 92/92/92
f 96/96/96 97/97/97 63/63/63
f 65/65/65 63/63/63 97/97/97
f 93/93/93 94/94/94 61/61/61
f 59/59/59 61/61/61 94/94/94
f 59/59/59 94/94/94 58/58/58
f 96/96/96 58/58/58 94/94/94
f 58/58/58 96/96/96 51/51/51
f 63/63/63 51/51/51 96/96/96
