g Flower_4
v 2.89668 -2.26685 3.624492
v -2.896668 -2.266851 -3.624495
v -2.896662 -2.266851 3.624495
v 2.896675 -2.26685 -3.624496
v 3.252065 -2.168022 3.619548
v 3.25206 -2.168022 -3.619552
v 2.891319 -2.168022 -4.05439
v -2.891312 -2.168023 -4.054388
v 2.891324 -2.168022 4.054386
v -2.891307 -2.168023 4.054388
v -3.252047 -2.168023 3.619552
v -3.252053 -2.168024 -3.619549
v 3.155555 -2.15581 -3.938905
v -3.155548 -2.155811 -3.938902
v -3.155543 -2.155811 3.938903
v 3.15556 -2.155809 3.9389
v -2.89667 2.266817 3.624495
v 2.896675 2.266818 -3.624496
v 2.89668 2.266818 3.624491
v -2.896668 2.266817 -3.624495
v -2.891312 2.168508 -4.054388
v 2.891319 2.168509 -4.05439
v 3.25206 2.168509 -3.619554
v 3.252065 2.16851 3.619547
v -3.252047 2.168509 3.619551
v -3.252053 2.168508 -3.619549
v -2.891307 2.168509 4.054388
v 2.891324 2.16851 4.054386
v 3.155555 2.168425 -3.938907
v -3.155548 2.168424 -3.938902
v -3.155543 2.168425 3.938904
v 3.15556 2.168426 3.938898
v 3.155555 -2.15581 -3.938905
v 2.896675 -1.920852 -4.214201
v 2.891319 -2.168022 -4.05439
v 3.25206 -1.915931 -4.05439
v -2.896668 -1.920853 -4.214197
v -2.891312 -2.168023 -4.054388
v 2.896675 2.032575 -4.214203
v -2.896675 2.032574 -4.214197
v 3.25206 2.032539 -4.05439
v -3.252053 2.032537 -4.054388
v -3.252053 -1.915932 -4.054388
v -3.388405 -1.920853 -3.624493
v -3.155548 -2.155811 -3.938902
v -3.252053 -2.168024 -3.619549
v -3.252047 -2.168023 3.619552
v -3.3884 -1.920853 3.624496
v -3.388405 2.032574 -3.624495
v -3.3884 2.032575 3.624492
v -3.252048 2.032538 4.054385
v -3.252048 -1.915931 4.054389
v -2.896663 -1.920853 4.214199
v -3.155543 -2.155811 3.938903
v -2.891307 -2.168023 4.054388
v 2.891324 -2.168022 4.054386
v 2.89668 -1.920852 4.214196
v -2.896663 2.032574 4.214199
v 2.89668 2.032576 4.214196
v 3.252065 2.03254 4.054384
v 3.252065 -1.91593 4.054385
v -3.155543 2.168425 3.938904
v -3.252047 2.168509 3.619551
v -3.252053 2.168508 -3.619549
v 3.15556 2.168426 3.938898
v 2.891324 2.16851 4.054386
v -2.891307 2.168509 4.054388
v 3.15556 -2.155809 3.9389
v -3.155548 2.168424 -3.938902
v -2.891312 2.168508 -4.054388
v 2.891319 2.168509 -4.05439
v 3.155555 2.168425 -3.938907
v 3.388412 2.032575 -3.624496
v 3.388412 -1.920852 -3.624496
v 3.388417 2.032576 3.624487
v 3.388417 -1.920852 3.624491
v 3.25206 -2.168022 -3.619552
v 3.252065 -2.168022 3.619548
v 3.15556 -2.155809 3.9389
v 3.252065 -1.91593 4.054385
v 3.252065 2.03254 4.054384
v 3.25206 2.168509 -3.619554
v 3.252065 2.16851 3.619547
v 3.15556 2.168426 3.938898
vt 0.2819074 0.01302131
vt 0.3731756 0.127767
vt 0.3734128 0.01321073
vt 0.2816705 0.1275776
vt 0.2760887 0.01303281
vt 0.2758519 0.127542
vt 0.2816114 0.1345367
vt 0.3732059 0.1347262
vt 0.281877 0.006062046
vt 0.3734718 0.006251588
vt 0.3792315 0.01324625
vt 0.3789943 0.1277555
vt 0.2773788 0.1326605
vt 0.3774461 0.1328677
vt 0.3777045 0.008127704
vt 0.2776366 0.007920757
vt 0.5282364 0.3069007
vt 0.4316369 0.1859085
vt 0.4316368 0.3069006
vt 0.5282362 0.1859088
vt 0.528305 0.178558
vt 0.431568 0.178558
vt 0.4255043 0.1859805
vt 0.425504 0.3068286
vt 0.5343688 0.3068287
vt 0.5343688 0.1859805
vt 0.5283054 0.3142514
vt 0.4315677 0.3142512
vt 0.427061 0.1805744
vt 0.5328121 0.1805745
vt 0.5328124 0.3122349
vt 0.4270607 0.3122348
vt 0.8399794 0.004132939
vt 0.8366122 0.01009143
vt 0.8366122 0.004132939
vt 0.8399794 0.01009143
vt 0.6962689 0.01009143
vt 0.6962689 0.004132939
vt 0.8366122 0.07906371
vt 0.6962689 0.07906371
vt 0.8399794 0.07906371
vt 0.6925756 0.07906371
vt 0.6925756 0.01009143
vt 0.6883295 0.01009143
vt 0.6925756 0.004132939
vt 0.6883295 0.004132939
vt 0.5457566 0.004132939
vt 0.5457566 0.01009143
vt 0.6883295 0.07906371
vt 0.5457566 0.07906371
vt 0.5417815 0.07906371
vt 0.5417815 0.01009143
vt 0.53834 0.01009143
vt 0.5417815 0.004132939
vt 0.53834 0.004132939
vt 0.3937278 0.004132939
vt 0.3937278 0.01009142
vt 0.53834 0.07906371
vt 0.3937278 0.07906371
vt 0.3904912 0.07906371
vt 0.3904912 0.01009142
vt 0.5417815 0.08502179
vt 0.5457566 0.08502179
vt 0.6883295 0.08502179
vt 0.3904912 0.08502178
vt 0.3937278 0.08502178
vt 0.53834 0.08502179
vt 0.3904912 0.00413294
vt 0.6925756 0.08502179
vt 0.6962689 0.08502179
vt 0.8366122 0.08502179
vt 0.8399794 0.08502179
vt 0.8438554 0.07906371
vt 0.8438554 0.01009143
vt 0.9916103 0.07906371
vt 0.9916103 0.01009143
vt 0.8438554 0.004132939
vt 0.9916103 0.004132939
vt 0.9953361 0.004132939
vt 0.9953361 0.01009143
vt 0.9953361 0.07906371
vt 0.8438554 0.08502179
vt 0.9916103 0.08502179
vt 0.9953361 0.08502179
vn 0.121158 -0.9877809 0.09802816
vn -0.1211576 -0.9877809 -0.09802833
vn -0.1211575 -0.987781 0.09802832
vn 0.1211577 -0.9877809 -0.09802825
vn 0.6333646 -0.766369 0.1073677
vn 0.6333643 -0.7663694 -0.1073672
vn 0.1431686 -0.792867 -0.5923384
vn -0.1431708 -0.792865 -0.5923405
vn 0.1431711 -0.7928659 0.5923393
vn -0.1431694 -0.7928668 0.5923383
vn -0.633364 -0.7663695 0.1073678
vn -0.6333641 -0.7663695 -0.1073671
vn 0.5028751 -0.7499402 -0.4297746
vn -0.5028752 -0.7499407 -0.4297738
vn -0.5028747 -0.7499412 0.4297735
vn 0.5028758 -0.7499403 0.4297738
vn -0.1158778 0.9889395 0.09258062
vn 0.1158751 0.9889397 -0.09258112
vn 0.1158748 0.9889398 0.0925803
vn -0.1158756 0.9889396 -0.09258135
vn -0.1029032 0.8781828 -0.4671252
vn 0.1029008 0.8781853 -0.4671209
vn 0.5168085 0.8525367 -0.07803927
vn 0.5168081 0.8525369 0.07803974
vn -0.5168101 0.8525358 0.07803924
vn -0.5168081 0.852537 -0.07803812
vn -0.1029031 0.8781833 0.4671243
vn 0.1029067 0.8781826 0.4671245
vn 0.3967943 0.8548841 -0.3342564
vn -0.3967945 0.8548854 -0.3342532
vn -0.3967963 0.8548827 0.3342579
vn 0.3967946 0.8548858 0.3342521
vn 0.5028751 -0.7499402 -0.4297746
vn 0.1990531 -0.2720161 -0.9414803
vn 0.1431686 -0.792867 -0.5923384
vn 0.7175039 -0.2556952 -0.647926
vn -0.1990523 -0.2720148 -0.9414808
vn -0.1431708 -0.792865 -0.5923405
vn 0.1864536 0.3963819 -0.8989529
vn -0.1864566 0.396379 -0.8989536
vn 0.6887853 0.3699024 -0.6234959
vn -0.6887833 0.369905 -0.6234966
vn -0.7175019 -0.2556969 -0.6479276
vn -0.9586964 -0.2433229 -0.1472926
vn -0.5028752 -0.7499407 -0.4297738
vn -0.6333641 -0.7663695 -0.1073671
vn -0.633364 -0.7663695 0.1073678
vn -0.9586962 -0.2433231 0.1472937
vn -0.9193026 0.3685302 -0.1380873
vn -0.9193028 0.3685299 0.1380867
vn -0.6887865 0.3699009 0.6234955
vn -0.7175026 -0.2556967 0.6479268
vn -0.1990528 -0.2720163 0.9414803
vn -0.5028747 -0.7499412 0.4297735
vn -0.1431694 -0.7928668 0.5923383
vn 0.1431711 -0.7928659 0.5923393
vn 0.1990539 -0.2720152 0.9414804
vn -0.1864552 0.3963791 0.8989539
vn 0.1864546 0.3963801 0.8989536
vn 0.6887833 0.3699059 0.6234958
vn 0.7175034 -0.2556961 0.6479263
vn -0.3967963 0.8548827 0.3342579
vn -0.5168101 0.8525358 0.07803924
vn -0.5168081 0.852537 -0.07803812
vn 0.3967946 0.8548858 0.3342521
vn 0.1029067 0.8781826 0.4671245
vn -0.1029031 0.8781833 0.4671243
vn 0.5028758 -0.7499403 0.4297738
vn -0.3967945 0.8548854 -0.3342532
vn -0.1029032 0.8781828 -0.4671252
vn 0.1029008 0.8781853 -0.4671209
vn 0.3967943 0.8548841 -0.3342564
vn 0.9193028 0.3685298 -0.1380869
vn 0.9586963 -0.2433228 -0.1472933
vn 0.9193029 0.3685303 0.1380855
vn 0.9586964 -0.2433228 0.1472928
vn 0.6333643 -0.7663694 -0.1073672
vn 0.6333646 -0.766369 0.1073677
vn 0.5028758 -0.7499403 0.4297738
vn 0.7175034 -0.2556961 0.6479263
vn 0.6887833 0.3699059 0.6234958
vn 0.5168085 0.8525367 -0.07803927
vn 0.5168081 0.8525369 0.07803974
vn 0.3967946 0.8548858 0.3342521
g Flower_4_0
f 3/3/3 2/2/2 1/1/1
f 4/4/4 1/1/1 2/2/2
f 1/1/1 4/4/4 5/5/5
f 6/6/6 5/5/5 4/4/4
f 4/4/4 2/2/2 7/7/7
f 8/8/8 7/7/7 2/2/2
f 1/1/1 9/9/9 3/3/3
f 10/10/10 3/3/3 9/9/9
f 3/3/3 11/11/11 2/2/2
f 12/12/12 2/2/2 11/11/11
f 4/4/4 7/7/7 13/13/13
f 6/6/6 4/4/4 13/13/13
f 2/2/2 12/12/12 14/14/14
f 8/8/8 2/2/2 14/14/14
f 3/3/3 10/10/10 15/15/15
f 11/11/11 3/3/3 15/15/15
f 1/1/1 5/5/5 16/16/16
f 9/9/9 1/1/1 16/16/16
f 19/19/19 18/18/18 17/17/17
f 20/20/20 17/17/17 18/18/18
f 20/20/20 18/18/18 21/21/21
f 22/22/22 21/21/21 18/18/18
f 18/18/18 19/19/19 23/23/23
f 24/24/24 23/23/23 19/19/19
f 17/17/17 20/20/20 25/25/25
f 26/26/26 25/25/25 20/20/20
f 17/17/17 27/27/27 19/19/19
f 28/28/28 19/19/19 27/27/27
f 18/18/18 23/23/23 29/29/29
f 22/22/22 18/18/18 29/29/29
f 20/20/20 21/21/21 30/30/30
f 26/26/26 20/20/20 30/30/30
f 17/17/17 25/25/25 31/31/31
f 27/27/27 17/17/17 31/31/31
f 19/19/19 28/28/28 32/32/32
f 24/24/24 19/19/19 32/32/32
f 35/35/35 34/34/34 33/33/33
f 36/36/36 33/33/33 34/34/34
f 34/34/34 35/35/35 37/37/37
f 38/38/38 37/37/37 35/35/35
f 34/34/34 37/37/37 39/39/39
f 40/40/40 39/39/39 37/37/37
f 39/39/39 41/41/41 34/34/34
f 36/36/36 34/34/34 41/41/41
f 40/40/40 37/37/37 42/42/42
f 43/43/43 42/42/42 37/37/37
f 43/43/43 44/44/44 42/42/42
f 43/43/43 45/45/45 44/44/44
f 43/43/43 37/37/37 45/45/45
f 38/38/38 45/45/45 37/37/37
f 46/46/46 44/44/44 45/45/45
f 46/46/46 47/47/47 44/44/44
f 48/48/48 44/44/44 47/47/47
f 44/44/44 48/48/48 49/49/49
f 49/49/49 42/42/42 44/44/44
f 50/50/50 49/49/49 48/48/48
f 50/50/50 48/48/48 51/51/51
f 52/52/52 51/51/51 48/48/48
f 52/52/52 53/53/53 51/51/51
f 52/52/52 54/54/54 53/53/53
f 52/52/52 48/48/48 54/54/54
f 47/47/47 54/54/54 48/48/48
f 55/55/55 53/53/53 54/54/54
f 55/55/55 56/56/56 53/53/53
f 57/57/57 53/53/53 56/56/56
f 58/58/58 51/51/51 53/53/53
f 53/53/53 57/57/57 58/58/58
f 59/59/59 58/58/58 57/57/57
f 59/59/59 57/57/57 60/60/60
f 61/61/61 60/60/60 57/57/57
f 51/51/51 62/62/62 50/50/50
f 51/51/51 58/58/58 62/62/62
f 63/63/63 50/50/50 62/62/62
f 49/49/49 50/50/50 64/64/64
f 63/63/63 64/64/64 50/50/50
f 60/60/60 65/65/65 59/59/59
f 66/66/66 59/59/59 65/65/65
f 58/58/58 59/59/59 67/67/67
f 66/66/66 67/67/67 59/59/59
f 67/67/67 62/62/62 58/58/58
f 61/61/61 57/57/57 68/68/68
f 56/56/56 68/68/68 57/57/57
f 64/64/64 69/69/69 49/49/49
f 42/42/42 49/49/49 69/69/69
f 42/42/42 69/69/69 40/40/40
f 70/70/70 40/40/40 69/69/69
f 40/40/40 70/70/70 39/39/39
f 71/71/71 39/39/39 70/70/70
f 71/71/71 72/72/72 39/39/39
f 41/41/41 39/39/39 72/72/72
f 41/41/41 72/72/72 73/73/73
f 73/73/73 74/74/74 41/41/41
f 36/36/36 41/41/41 74/74/74
f 73/73/73 75/75/75 74/74/74
f 76/76/76 74/74/74 75/75/75
f 74/74/74 76/76/76 77/77/77
f 78/78/78 77/77/77 76/76/76
f 78/78/78 76/76/76 79/79/79
f 80/80/80 79/79/79 76/76/76
f 75/75/75 81/81/81 76/76/76
f 80/80/80 76/76/76 81/81/81
f 82/82/82 73/73/73 72/72/72
f 75/75/75 73/73/73 83/83/83
f 82/82/82 83/83/83 73/73/73
f 36/36/36 74/74/74 33/33/33
f 77/77/77 33/33/33 74/74/74
f 81/81/81 75/75/75 84/84/84
f 83/83/83 84/84/84 75/75/75
