g Season_4
v 2.896685 -2.266866 3.624492
v -2.896663 -2.266867 -3.624493
v -2.89665 -2.266867 3.624495
v 2.896687 -2.266866 -3.624496
v 3.252062 -2.168038 3.619548
v 3.252064 -2.168038 -3.619553
v 2.891316 -2.168038 -4.054389
v -2.891307 -2.168039 -4.054388
v 2.891329 -2.168038 4.054386
v -2.89131 -2.168039 4.054389
v -3.252043 -2.168039 3.619552
v -3.252056 -2.168039 -3.61955
v 3.155568 -2.155825 -3.938904
v -3.155544 -2.155826 -3.938901
v -3.155531 -2.155826 3.938903
v 3.155565 -2.155825 3.9389
v -2.896666 2.266801 3.624495
v 2.896687 2.266802 -3.624497
v 2.896685 2.266802 3.624492
v -2.896663 2.266801 -3.624493
v -2.891307 2.168493 -4.054388
v 2.891316 2.168494 -4.054389
v 3.252064 2.168494 -3.619554
v 3.252047 2.168495 3.619548
v -3.252043 2.168494 3.619551
v -3.252056 2.168493 -3.61955
v -2.891325 2.168494 4.054389
v 2.891329 2.168495 4.054386
v 3.155568 2.16841 -3.938905
v -3.155544 2.168409 -3.938901
v -3.155546 2.168409 3.938903
v 3.15555 2.168411 3.938899
v 3.155568 -2.155825 -3.938904
v 2.896687 -1.920868 -4.2142
v 2.891316 -2.168038 -4.054389
v 3.252064 -1.915946 -4.05439
v -2.896663 -1.920869 -4.214198
v -2.891307 -2.168039 -4.054388
v 2.896687 2.03256 -4.2142
v -2.896678 2.032559 -4.214199
v 3.252064 2.032524 -4.054391
v -3.252056 2.032522 -4.054386
v -3.252056 -1.915947 -4.054387
v -3.388408 -1.920869 -3.624492
v -3.155544 -2.155826 -3.938901
v -3.252056 -2.168039 -3.61955
v -3.252043 -2.168039 3.619552
v -3.388395 -1.920869 3.624496
v -3.388408 2.032559 -3.624492
v -3.388395 2.03256 3.624494
v -3.252043 2.032523 4.054389
v -3.252043 -1.915947 4.054389
v -2.896651 -1.920868 4.2142
v -3.155531 -2.155826 3.938903
v -2.89131 -2.168039 4.054389
v 2.891329 -2.168038 4.054386
v 2.896684 -1.920867 4.214197
v -2.896666 2.032559 4.214198
v 2.896669 2.03256 4.214195
v 3.252046 2.032524 4.054386
v 3.252062 -1.915946 4.054386
v -3.155546 2.168409 3.938903
v -3.252043 2.168494 3.619551
v -3.252056 2.168493 -3.61955
v 3.15555 2.168411 3.938899
v 2.891329 2.168495 4.054386
v -2.891325 2.168494 4.054389
v 3.155565 -2.155825 3.9389
v -3.155544 2.168409 -3.938901
v -2.891307 2.168493 -4.054388
v 2.891316 2.168494 -4.054389
v 3.155568 2.16841 -3.938905
v 3.388417 2.03256 -3.624501
v 3.388417 -1.920868 -3.624497
v 3.388399 2.03256 3.624489
v 3.388414 -1.920867 3.624491
v 3.252064 -2.168038 -3.619553
v 3.252062 -2.168038 3.619548
v 3.155565 -2.155825 3.9389
v 3.252062 -1.915946 4.054386
v 3.252046 2.032524 4.054386
v 3.252064 2.168494 -3.619554
v 3.252047 2.168495 3.619548
v 3.15555 2.168411 3.938899
vt 0.2819074 0.01302131
vt 0.3731756 0.127767
vt 0.3734128 0.01321073
vt 0.2816705 0.1275776
vt 0.2760887 0.01303281
vt 0.2758519 0.127542
vt 0.2816114 0.1345367
vt 0.3732059 0.1347262
vt 0.281877 0.006062046
vt 0.3734718 0.006251588
vt 0.3792315 0.01324625
vt 0.3789943 0.1277555
vt 0.2773788 0.1326605
vt 0.3774461 0.1328677
vt 0.3777045 0.008127704
vt 0.2776366 0.007920757
vt 0.9677441 0.4724831
vt 0.8711444 0.3514909
vt 0.8711443 0.472483
vt 0.9677438 0.3514912
vt 0.9678126 0.3441404
vt 0.8710755 0.3441404
vt 0.8650118 0.3515629
vt 0.8650116 0.472411
vt 0.9738764 0.4724111
vt 0.9738764 0.3515629
vt 0.967813 0.4798338
vt 0.8710753 0.4798337
vt 0.8665686 0.3461568
vt 0.9723197 0.3461569
vt 0.97232 0.4778174
vt 0.8665682 0.4778172
vt 0.8399794 0.004132939
vt 0.8366122 0.01009143
vt 0.8366122 0.004132939
vt 0.8399794 0.01009143
vt 0.6962689 0.01009143
vt 0.6962689 0.004132939
vt 0.8366122 0.07906371
vt 0.6962689 0.07906371
vt 0.8399794 0.07906371
vt 0.6925756 0.07906371
vt 0.6925756 0.01009143
vt 0.6883295 0.01009143
vt 0.6925756 0.004132939
vt 0.6883295 0.004132939
vt 0.5457566 0.004132939
vt 0.5457566 0.01009143
vt 0.6883295 0.07906371
vt 0.5457566 0.07906371
vt 0.5417815 0.07906371
vt 0.5417815 0.01009143
vt 0.53834 0.01009143
vt 0.5417815 0.004132939
vt 0.53834 0.004132939
vt 0.3937278 0.004132939
vt 0.3937278 0.01009142
vt 0.53834 0.07906371
vt 0.3937278 0.07906371
vt 0.3904912 0.07906371
vt 0.3904912 0.01009142
vt 0.5417815 0.08502179
vt 0.5457566 0.08502179
vt 0.6883295 0.08502179
vt 0.3904912 0.08502178
vt 0.3937278 0.08502178
vt 0.53834 0.08502179
vt 0.3904912 0.00413294
vt 0.6925756 0.08502179
vt 0.6962689 0.08502179
vt 0.8366122 0.08502179
vt 0.8399794 0.08502179
vt 0.8438554 0.07906371
vt 0.8438554 0.01009143
vt 0.9916103 0.07906371
vt 0.9916103 0.01009143
vt 0.8438554 0.004132939
vt 0.9916103 0.004132939
vt 0.9953361 0.004132939
vt 0.9953361 0.01009143
vt 0.9953361 0.07906371
vt 0.8438554 0.08502179
vt 0.9916103 0.08502179
vt 0.9953361 0.08502179
vn 0.1211601 -0.9877807 0.09802769
vn -0.1211555 -0.9877813 -0.09802863
vn -0.1211552 -0.9877813 0.09802842
vn 0.12116 -0.9877807 -0.09802816
vn 0.6333657 -0.766369 0.1073611
vn 0.6333656 -0.7663693 -0.1073605
vn 0.1431566 -0.7928714 -0.5923353
vn -0.1431706 -0.7928659 -0.5923392
vn 0.143171 -0.7928662 0.5923388
vn -0.1431829 -0.7928618 0.5923418
vn -0.6333626 -0.7663695 0.1073751
vn -0.6333631 -0.7663692 -0.1073743
vn 0.5028812 -0.7499369 -0.4297733
vn -0.5028656 -0.7499459 -0.4297759
vn -0.5028684 -0.7499453 0.4297735
vn 0.5028855 -0.7499352 0.4297714
vn -0.1158765 0.9889397 0.09257943
vn 0.1158769 0.9889395 -0.09258073
vn 0.1158817 0.988939 0.0925797
vn -0.1158733 0.9889398 -0.0925814
vn -0.1028997 0.8781863 -0.4671194
vn 0.1028916 0.8781871 -0.4671197
vn 0.5168082 0.8525376 -0.07803173
vn 0.5168134 0.8525342 0.07803484
vn -0.5168082 0.8525374 0.07803333
vn -0.5168068 0.8525373 -0.07804461
vn -0.1029162 0.8781782 0.467131
vn 0.1029168 0.8781777 0.4671316
vn 0.3968019 0.854881 -0.3342553
vn -0.3967839 0.8548909 -0.3342518
vn -0.396807 0.8548796 0.3342531
vn 0.3968084 0.8548787 0.334254
vn 0.5028812 -0.7499369 -0.4297733
vn 0.1990561 -0.2720177 -0.9414792
vn 0.1431566 -0.7928714 -0.5923353
vn 0.7175054 -0.2556899 -0.6479264
vn -0.1990509 -0.2720165 -0.9414807
vn -0.1431706 -0.7928659 -0.5923392
vn 0.186455 0.3963816 -0.8989528
vn -0.1864606 0.3963822 -0.8989514
vn 0.6887836 0.3698985 -0.6234999
vn -0.6887856 0.3699106 -0.6234905
vn -0.7175006 -0.255703 -0.6479265
vn -0.9586957 -0.243325 -0.1472947
vn -0.5028656 -0.7499459 -0.4297759
vn -0.6333631 -0.7663692 -0.1073743
vn -0.6333626 -0.7663695 0.1073751
vn -0.9586952 -0.2433253 0.1472965
vn -0.9193016 0.3685322 -0.1380886
vn -0.9193034 0.3685291 0.1380849
vn -0.6887839 0.369898 0.6234999
vn -0.7174999 -0.255704 0.647927
vn -0.1990491 -0.2720149 0.9414815
vn -0.5028684 -0.7499453 0.4297735
vn -0.1431829 -0.7928618 0.5923418
vn 0.143171 -0.7928662 0.5923388
vn 0.199057 -0.2720144 0.9414799
vn -0.1864532 0.3963755 0.8989559
vn 0.1864537 0.3963761 0.8989555
vn 0.6887836 0.3699003 0.6234989
vn 0.7175065 -0.2556881 0.6479259
vn -0.396807 0.8548796 0.3342531
vn -0.5168082 0.8525374 0.07803333
vn -0.5168068 0.8525373 -0.07804461
vn 0.3968084 0.8548787 0.334254
vn 0.1029168 0.8781777 0.4671316
vn -0.1029162 0.8781782 0.467131
vn 0.5028855 -0.7499352 0.4297714
vn -0.3967839 0.8548909 -0.3342518
vn -0.1028997 0.8781863 -0.4671194
vn 0.1028916 0.8781871 -0.4671197
vn 0.3968019 0.854881 -0.3342553
vn 0.9193034 0.3685292 -0.138085
vn 0.9586974 -0.2433205 -0.1472903
vn 0.9193034 0.3685296 0.1380848
vn 0.9586977 -0.2433188 0.147291
vn 0.6333656 -0.7663693 -0.1073605
vn 0.6333657 -0.766369 0.1073611
vn 0.5028855 -0.7499352 0.4297714
vn 0.7175065 -0.2556881 0.6479259
vn 0.6887836 0.3699003 0.6234989
vn 0.5168082 0.8525376 -0.07803173
vn 0.5168134 0.8525342 0.07803484
vn 0.3968084 0.8548787 0.334254
g Season_4_0
f 3/3/3 2/2/2 1/1/1
f 4/4/4 1/1/1 2/2/2
f 1/1/1 4/4/4 5/5/5
f 6/6/6 5/5/5 4/4/4
f 4/4/4 2/2/2 7/7/7
f 8/8/8 7/7/7 2/2/2
f 1/1/1 9/9/9 3/3/3
f 10/10/10 3/3/3 9/9/9
f 3/3/3 11/11/11 2/2/2
f 12/12/12 2/2/2 11/11/11
f 4/4/4 7/7/7 13/13/13
f 6/6/6 4/4/4 13/13/13
f 2/2/2 12/12/12 14/14/14
f 8/8/8 2/2/2 14/14/14
f 3/3/3 10/10/10 15/15/15
f 11/11/11 3/3/3 15/15/15
f 1/1/1 5/5/5 16/16/16
f 9/9/9 1/1/1 16/16/16
f 19/19/19 18/18/18 17/17/17
f 20/20/20 17/17/17 18/18/18
f 20/20/20 18/18/18 21/21/21
f 22/22/22 21/21/21 18/18/18
f 18/18/18 19/19/19 23/23/23
f 24/24/24 23/23/23 19/19/19
f 17/17/17 20/20/20 25/25/25
f 26/26/26 25/25/25 20/20/20
f 17/17/17 27/27/27 19/19/19
f 28/28/28 19/19/19 27/27/27
f 18/18/18 23/23/23 29/29/29
f 22/22/22 18/18/18 29/29/29
f 20/20/20 21/21/21 30/30/30
f 26/26/26 20/20/20 30/30/30
f 17/17/17 25/25/25 31/31/31
f 27/27/27 17/17/17 31/31/31
f 19/19/19 28/28/28 32/32/32
f 24/24/24 19/19/19 32/32/32
f 35/35/35 34/34/34 33/33/33
f 36/36/36 33/33/33 34/34/34
f 34/34/34 35/35/35 37/37/37
f 38/38/38 37/37/37 35/35/35
f 34/34/34 37/37/37 39/39/39
f 40/40/40 39/39/39 37/37/37
f 39/39/39 41/41/41 34/34/34
f 36/36/36 34/34/34 41/41/41
f 40/40/40 37/37/37 42/42/42
f 43/43/43 42/42/42 37/37/37
f 43/43/43 44/44/44 42/42/42
f 43/43/43 45/45/45 44/44/44
f 43/43/43 37/37/37 45/45/45
f 38/38/38 45/45/45 37/37/37
f 46/46/46 44/44/44 45/45/45
f 46/46/46 47/47/47 44/44/44
f 48/48/48 44/44/44 47/47/47
f 44/44/44 48/48/48 49/49/49
f 49/49/49 42/42/42 44/44/44
f 50/50/50 49/49/49 48/48/48
f 50/50/50 48/48/48 51/51/51
f 52/52/52 51/51/51 48/48/48
f 52/52/52 53/53/53 51/51/51
f 52/52/52 54/54/54 53/53/53
f 52/52/52 48/48/48 54/54/54
f 47/47/47 54/54/54 48/48/48
f 55/55/55 53/53/53 54/54/54
f 55/55/55 56/56/56 53/53/53
f 57/57/57 53/53/53 56/56/56
f 58/58/58 51/51/51 53/53/53
f 53/53/53 57/57/57 58/58/58
f 59/59/59 58/58/58 57/57/57
f 59/59/59 57/57/57 60/60/60
f 61/61/61 60/60/60 57/57/57
f 51/51/51 62/62/62 50/50/50
f 51/51/51 58/58/58 62/62/62
f 63/63/63 50/50/50 62/62/62
f 49/49/49 50/50/50 64/64/64
f 63/63/63 64/64/64 50/50/50
f 60/60/60 65/65/65 59/59/59
f 66/66/66 59/59/59 65/65/65
f 58/58/58 59/59/59 67/67/67
f 66/66/66 67/67/67 59/59/59
f 67/67/67 62/62/62 58/58/58
f 61/61/61 57/57/57 68/68/68
f 56/56/56 68/68/68 57/57/57
f 64/64/64 69/69/69 49/49/49
f 42/42/42 49/49/49 69/69/69
f 42/42/42 69/69/69 40/40/40
f 70/70/70 40/40/40 69/69/69
f 40/40/40 70/70/70 39/39/39
f 71/71/71 39/39/39 70/70/70
f 71/71/71 72/72/72 39/39/39
f 41/41/41 39/39/39 72/72/72
f 41/41/41 72/72/72 73/73/73
f 73/73/73 74/74/74 41/41/41
f 36/36/36 41/41/41 74/74/74
f 73/73/73 75/75/75 74/74/74
f 76/76/76 74/74/74 75/75/75
f 74/74/74 76/76/76 77/77/77
f 78/78/78 77/77/77 76/76/76
f 78/78/78 76/76/76 79/79/79
f 80/80/80 79/79/79 76/76/76
f 75/75/75 81/81/81 76/76/76
f 80/80/80 76/76/76 81/81/81
f 82/82/82 73/73/73 72/72/72
f 75/75/75 73/73/73 83/83/83
f 82/82/82 83/83/83 73/73/73
f 36/36/36 74/74/74 33/33/33
f 77/77/77 33/33/33 74/74/74
f 81/81/81 75/75/75 84/84/84
f 83/83/83 84/84/84 75/75/75
