g Wind_North
v 2.896654 -2.26686 3.624492
v -2.896678 -2.266861 -3.624493
v -2.896681 -2.266861 3.624495
v 2.896657 -2.26686 -3.624496
v 3.252047 -2.168032 3.619548
v 3.252034 -2.168032 -3.619553
v 2.891301 -2.168032 -4.05439
v -2.891338 -2.168033 -4.054388
v 2.891313 -2.168032 4.054386
v -2.891325 -2.168033 4.054389
v -3.252058 -2.168033 3.619552
v -3.252071 -2.168033 -3.61955
v 3.155537 -2.155819 -3.938905
v -3.155559 -2.15582 -3.938902
v -3.155562 -2.15582 3.938903
v 3.155535 -2.155819 3.9389
v -2.896681 2.266807 3.624495
v 2.896657 2.266808 -3.624497
v 2.896654 2.266808 3.624491
v -2.896678 2.266807 -3.624493
v -2.891338 2.168499 -4.054388
v 2.891301 2.1685 -4.054391
v 3.252034 2.1685 -3.619553
v 3.252047 2.168501 3.619548
v -3.252073 2.1685 3.619551
v -3.252071 2.168499 -3.61955
v -2.891325 2.1685 4.054389
v 2.891313 2.168501 4.054385
v 3.155537 2.168416 -3.938905
v -3.155559 2.168415 -3.938903
v -3.155577 2.168416 3.938903
v 3.155535 2.168417 3.938899
v 3.155537 -2.155819 -3.938905
v 2.896657 -1.920862 -4.214201
v 2.891301 -2.168032 -4.05439
v 3.252034 -1.91594 -4.05439
v -2.896678 -1.920863 -4.214198
v -2.891338 -2.168033 -4.054388
v 2.896657 2.032566 -4.214205
v -2.896693 2.032565 -4.214198
v 3.252034 2.03253 -4.05439
v -3.252071 2.032528 -4.054386
v -3.252071 -1.915941 -4.054387
v -3.388423 -1.920863 -3.624493
v -3.155559 -2.15582 -3.938902
v -3.252071 -2.168033 -3.61955
v -3.252058 -2.168033 3.619552
v -3.388411 -1.920863 3.624496
v -3.388423 2.032565 -3.624493
v -3.388426 2.032566 3.624494
v -3.252074 2.032529 4.054389
v -3.252058 -1.915941 4.054389
v -2.896681 -1.920862 4.2142
v -3.155562 -2.15582 3.938903
v -2.891325 -2.168033 4.054389
v 2.891313 -2.168032 4.054386
v 2.896654 -1.920861 4.214196
v -2.896696 2.032565 4.214198
v 2.896654 2.032567 4.214194
v 3.252046 2.032531 4.054386
v 3.252046 -1.91594 4.054386
v -3.155577 2.168416 3.938903
v -3.252073 2.1685 3.619551
v -3.252071 2.168499 -3.61955
v 3.155535 2.168417 3.938899
v 2.891313 2.168501 4.054385
v -2.891325 2.1685 4.054389
v 3.155535 -2.155819 3.9389
v -3.155559 2.168415 -3.938903
v -2.891338 2.168499 -4.054388
v 2.891301 2.1685 -4.054391
v 3.155537 2.168416 -3.938905
v 3.388386 2.032566 -3.624498
v 3.388386 -1.920862 -3.624497
v 3.388399 2.032567 3.624489
v 3.388399 -1.920861 3.624491
v 3.252034 -2.168032 -3.619553
v 3.252047 -2.168032 3.619548
v 3.155535 -2.155819 3.9389
v 3.252046 -1.91594 4.054386
v 3.252046 2.032531 4.054386
v 3.252034 2.1685 -3.619553
v 3.252047 2.168501 3.619548
v 3.155535 2.168417 3.938899
vt 0.2819074 0.01302131
vt 0.3731756 0.127767
vt 0.3734128 0.01321073
vt 0.2816705 0.1275776
vt 0.2760887 0.01303281
vt 0.2758519 0.127542
vt 0.2816114 0.1345367
vt 0.3732059 0.1347262
vt 0.281877 0.006062046
vt 0.3734718 0.006251588
vt 0.3792315 0.01324625
vt 0.3789943 0.1277555
vt 0.2773788 0.1326605
vt 0.3774461 0.1328677
vt 0.3777045 0.008127704
vt 0.2776366 0.007920757
vt 0.4206576 0.4682772
vt 0.324058 0.347285
vt 0.3240579 0.468277
vt 0.4206574 0.3472852
vt 0.4207262 0.3399344
vt 0.3239891 0.3399344
vt 0.3179254 0.347357
vt 0.3179252 0.468205
vt 0.42679 0.4682052
vt 0.42679 0.347357
vt 0.4207265 0.4756278
vt 0.3239889 0.4756277
vt 0.3194821 0.3419508
vt 0.4252332 0.341951
vt 0.4252336 0.4736114
vt 0.3194818 0.4736113
vt 0.8399794 0.004132939
vt 0.8366122 0.01009143
vt 0.8366122 0.004132939
vt 0.8399794 0.01009143
vt 0.6962689 0.01009143
vt 0.6962689 0.004132939
vt 0.8366122 0.07906371
vt 0.6962689 0.07906371
vt 0.8399794 0.07906371
vt 0.6925756 0.07906371
vt 0.6925756 0.01009143
vt 0.6883295 0.01009143
vt 0.6925756 0.004132939
vt 0.6883295 0.004132939
vt 0.5457566 0.004132939
vt 0.5457566 0.01009143
vt 0.6883295 0.07906371
vt 0.5457566 0.07906371
vt 0.5417815 0.07906371
vt 0.5417815 0.01009143
vt 0.53834 0.01009143
vt 0.5417815 0.004132939
vt 0.53834 0.004132939
vt 0.3937278 0.004132939
vt 0.3937278 0.01009142
vt 0.53834 0.07906371
vt 0.3937278 0.07906371
vt 0.3904912 0.07906371
vt 0.3904912 0.01009142
vt 0.5417815 0.08502179
vt 0.5457566 0.08502179
vt 0.6883295 0.08502179
vt 0.3904912 0.08502178
vt 0.3937278 0.08502178
vt 0.53834 0.08502179
vt 0.3904912 0.00413294
vt 0.6925756 0.08502179
vt 0.6962689 0.08502179
vt 0.8366122 0.08502179
vt 0.8399794 0.08502179
vt 0.8438554 0.07906371
vt 0.8438554 0.01009143
vt 0.9916103 0.07906371
vt 0.9916103 0.01009143
vt 0.8438554 0.004132939
vt 0.9916103 0.004132939
vt 0.9953361 0.004132939
vt 0.9953361 0.01009143
vt 0.9953361 0.07906371
vt 0.8438554 0.08502179
vt 0.9916103 0.08502179
vt 0.9953361 0.08502179
vn 0.1211557 -0.9877812 0.09802844
vn -0.1211554 -0.9877813 -0.0980281
vn -0.1211597 -0.9877808 0.09802753
vn 0.1211598 -0.9877808 -0.09802777
vn 0.6333635 -0.766369 0.1073747
vn 0.6333654 -0.7663693 -0.1073611
vn 0.1431695 -0.7928668 -0.5923383
vn -0.1431835 -0.7928615 -0.5923423
vn 0.1431839 -0.7928616 0.5923418
vn -0.1431699 -0.7928663 0.5923388
vn -0.633365 -0.7663696 0.1073609
vn -0.6333631 -0.7663692 -0.1073743
vn 0.5028846 -0.7499358 -0.4297713
vn -0.502869 -0.7499447 -0.429774
vn -0.5028847 -0.7499358 0.4297712
vn 0.5028692 -0.7499448 0.4297737
vn -0.1158709 0.9889403 0.09257963
vn 0.1158769 0.9889396 -0.0925802
vn 0.1158721 0.9889402 0.09258028
vn -0.115873 0.9889399 -0.09258083
vn -0.102911 0.8781816 -0.4671255
vn 0.102903 0.8781859 -0.4671194
vn 0.5168085 0.8525373 -0.07803275
vn 0.5168061 0.8525376 0.07804498
vn -0.5168042 0.8525399 0.07803211
vn -0.516807 0.8525371 -0.07804528
vn -0.1028933 0.878186 0.4671212
vn 0.1029173 0.8781784 0.4671304
vn 0.3968058 0.8548803 -0.3342525
vn -0.3967862 0.8548895 -0.3342523
vn -0.3968018 0.8548819 0.3342531
vn 0.3967834 0.8548909 0.334252
vn 0.5028846 -0.7499358 -0.4297713
vn 0.1990557 -0.2720159 -0.9414799
vn 0.1431695 -0.7928668 -0.5923383
vn 0.7175054 -0.2556899 -0.6479264
vn -0.1990504 -0.2720144 -0.9414814
vn -0.1431835 -0.7928615 -0.5923423
vn 0.1864578 0.3963821 -0.8989519
vn -0.1864592 0.3963786 -0.8989532
vn 0.6887877 0.3698981 -0.6234959
vn -0.6887856 0.3699095 -0.6234914
vn -0.7175006 -0.255703 -0.6479265
vn -0.9586957 -0.243325 -0.1472947
vn -0.502869 -0.7499447 -0.429774
vn -0.6333631 -0.7663692 -0.1073743
vn -0.633365 -0.7663696 0.1073609
vn -0.9586967 -0.2433225 0.1472913
vn -0.9193019 0.3685313 -0.138089
vn -0.9193044 0.368527 0.138084
vn -0.6887848 0.3698967 0.6234998
vn -0.7175049 -0.2556914 0.6479265
vn -0.1990553 -0.2720153 0.94148
vn -0.5028847 -0.7499358 0.4297712
vn -0.1431699 -0.7928663 0.5923388
vn 0.1431839 -0.7928616 0.5923418
vn 0.1990503 -0.2720147 0.9414814
vn -0.186455 0.3963795 0.8989537
vn 0.1864484 0.3963781 0.8989557
vn 0.6887781 0.3699131 0.6234974
vn 0.7175004 -0.2557035 0.6479265
vn -0.3968018 0.8548819 0.3342531
vn -0.5168042 0.8525399 0.07803211
vn -0.516807 0.8525371 -0.07804528
vn 0.3967834 0.8548909 0.334252
vn 0.1029173 0.8781784 0.4671304
vn -0.1028933 0.878186 0.4671212
vn 0.5028692 -0.7499448 0.4297737
vn -0.3967862 0.8548895 -0.3342523
vn -0.102911 0.8781816 -0.4671255
vn 0.102903 0.8781859 -0.4671194
vn 0.3968058 0.8548803 -0.3342525
vn 0.9193034 0.3685291 -0.1380859
vn 0.9586971 -0.2433208 -0.1472917
vn 0.9193018 0.3685322 0.1380877
vn 0.9586957 -0.243325 0.1472947
vn 0.6333654 -0.7663693 -0.1073611
vn 0.6333635 -0.766369 0.1073747
vn 0.5028692 -0.7499448 0.4297737
vn 0.7175004 -0.2557035 0.6479265
vn 0.6887781 0.3699131 0.6234974
vn 0.5168085 0.8525373 -0.07803275
vn 0.5168061 0.8525376 0.07804498
vn 0.3967834 0.8548909 0.334252
g Wind_North_0
f 3/3/3 2/2/2 1/1/1
f 4/4/4 1/1/1 2/2/2
f 1/1/1 4/4/4 5/5/5
f 6/6/6 5/5/5 4/4/4
f 4/4/4 2/2/2 7/7/7
f 8/8/8 7/7/7 2/2/2
f 1/1/1 9/9/9 3/3/3
f 10/10/10 3/3/3 9/9/9
f 3/3/3 11/11/11 2/2/2
f 12/12/12 2/2/2 11/11/11
f 4/4/4 7/7/7 13/13/13
f 6/6/6 4/4/4 13/13/13
f 2/2/2 12/12/12 14/14/14
f 8/8/8 2/2/2 14/14/14
f 3/3/3 10/10/10 15/15/15
f 11/11/11 3/3/3 15/15/15
f 1/1/1 5/5/5 16/16/16
f 9/9/9 1/1/1 16/16/16
f 19/19/19 18/18/18 17/17/17
f 20/20/20 17/17/17 18/18/18
f 20/20/20 18/18/18 21/21/21
f 22/22/22 21/21/21 18/18/18
f 18/18/18 19/19/19 23/23/23
f 24/24/24 23/23/23 19/19/19
f 17/17/17 20/20/20 25/25/25
f 26/26/26 25/25/25 20/20/20
f 17/17/17 27/27/27 19/19/19
f 28/28/28 19/19/19 27/27/27
f 18/18/18 23/23/23 29/29/29
f 22/22/22 18/18/18 29/29/29
f 20/20/20 21/21/21 30/30/30
f 26/26/26 20/20/20 30/30/30
f 17/17/17 25/25/25 31/31/31
f 27/27/27 17/17/17 31/31/31
f 19/19/19 28/28/28 32/32/32
f 24/24/24 19/19/19 32/32/32
f 35/35/35 34/34/34 33/33/33
f 36/36/36 33/33/33 34/34/34
f 34/34/34 35/35/35 37/37/37
f 38/38/38 37/37/37 35/35/35
f 34/34/34 37/37/37 39/39/39
f 40/40/40 39/39/39 37/37/37
f 39/39/39 41/41/41 34/34/34
f 36/36/36 34/34/34 41/41/41
f 40/40/40 37/37/37 42/42/42
f 43/43/43 42/42/42 37/37/37
f 43/43/43 44/44/44 42/42/42
f 43/43/43 45/45/45 44/44/44
f 43/43/43 37/37/37 45/45/45
f 38/38/38 45/45/45 37/37/37
f 46/46/46 44/44/44 45/45/45
f 46/46/46 47/47/47 44/44/44
f 48/48/48 44/44/44 47/47/47
f 44/44/44 48/48/48 49/49/49
f 49/49/49 42/42/42 44/44/44
f 50/50/50 49/49/49 48/48/48
f 50/50/50 48/48/48 51/51/51
f 52/52/52 51/51/51 48/48/48
f 52/52/52 53/53/53 51/51/51
f 52/52/52 54/54/54 53/53/53
f 52/52/52 48/48/48 54/54/54
f 47/47/47 54/54/54 48/48/48
f 55/55/55 53/53/53 54/54/54
f 55/55/55 56/56/56 53/53/53
f 57/57/57 53/53/53 56/56/56
f 58/58/58 51/51/51 53/53/53
f 53/53/53 57/57/57 58/58/58
f 59/59/59 58/58/58 57/57/57
f 59/59/59 57/57/57 60/60/60
f 61/61/61 60/60/60 57/57/57
f 51/51/51 62/62/62 50/50/50
f 51/51/51 58/58/58 62/62/62
f 63/63/63 50/50/50 62/62/62
f 49/49/49 50/50/50 64/64/64
f 63/63/63 64/64/64 50/50/50
f 60/60/60 65/65/65 59/59/59
f 66/66/66 59/59/59 65/65/65
f 58/58/58 59/59/59 67/67/67
f 66/66/66 67/67/67 59/59/59
f 67/67/67 62/62/62 58/58/58
f 61/61/61 57/57/57 68/68/68
f 56/56/56 68/68/68 57/57/57
f 64/64/64 69/69/69 49/49/49
f 42/42/42 49/49/49 69/69/69
f 42/42/42 69/69/69 40/40/40
f 70/70/70 40/40/40 69/69/69
f 40/40/40 70/70/70 39/39/39
f 71/71/71 39/39/39 70/70/70
f 71/71/71 72/72/72 39/39/39
f 41/41/41 39/39/39 72/72/72
f 41/41/41 72/72/72 73/73/73
f 73/73/73 74/74/74 41/41/41
f 36/36/36 41/41/41 74/74/74
f 73/73/73 75/75/75 74/74/74
f 76/76/76 74/74/74 75/75/75
f 74/74/74 76/76/76 77/77/77
f 78/78/78 77/77/77 76/76/76
f 78/78/78 76/76/76 79/79/79
f 80/80/80 79/79/79 76/76/76
f 75/75/75 81/81/81 76/76/76
f 80/80/80 76/76/76 81/81/81
f 82/82/82 73/73/73 72/72/72
f 75/75/75 73/73/73 83/83/83
f 82/82/82 83/83/83 73/73/73
f 36/36/36 74/74/74 33/33/33
f 77/77/77 33/33/33 74/74/74
f 81/81/81 75/75/75 84/84/84
f 83/83/83 84/84/84 75/75/75
