g Wind_East
v 2.896669 -2.266856 3.624495
v -2.896678 -2.266857 -3.62449
v -2.896681 -2.266857 3.624498
v 2.896657 -2.266856 -3.624493
v 3.252047 -2.168028 3.619551
v 3.252049 -2.168028 -3.61955
v 2.891301 -2.168028 -4.054387
v -2.891323 -2.168029 -4.054385
v 2.891313 -2.168028 4.054389
v -2.891325 -2.168029 4.054392
v -3.252058 -2.168029 3.619555
v -3.252071 -2.16803 -3.619547
v 3.155537 -2.155816 -3.938901
v -3.155559 -2.155817 -3.938899
v -3.155562 -2.155817 3.938906
v 3.15555 -2.155815 3.938903
v -2.896681 2.266811 3.624498
v 2.896657 2.266812 -3.624494
v 2.896669 2.266812 3.624494
v -2.896678 2.266811 -3.62449
v -2.891323 2.168503 -4.054385
v 2.891301 2.168504 -4.054387
v 3.252049 2.168504 -3.619551
v 3.252047 2.168504 3.61955
v -3.252058 2.168503 3.619554
v -3.252071 2.168503 -3.619548
v -2.891325 2.168503 4.054391
v 2.891313 2.168504 4.054389
v 3.155537 2.168419 -3.938903
v -3.155559 2.168418 -3.938899
v -3.155562 2.168419 3.938905
v 3.15555 2.16842 3.938902
v 3.155537 -2.155816 -3.938901
v 2.896657 -1.920858 -4.214198
v 2.891301 -2.168028 -4.054387
v 3.252049 -1.915937 -4.054388
v -2.896678 -1.920859 -4.214195
v -2.891323 -2.168029 -4.054385
v 2.896657 2.032569 -4.214198
v -2.896693 2.032568 -4.214196
v 3.252049 2.032533 -4.054391
v -3.252071 2.032532 -4.054383
v -3.252071 -1.915938 -4.054384
v -3.388423 -1.920859 -3.62449
v -3.155559 -2.155817 -3.938899
v -3.252071 -2.16803 -3.619547
v -3.252058 -2.168029 3.619555
v -3.388411 -1.920859 3.624499
v -3.388423 2.032568 -3.62449
v -3.388411 2.032569 3.624499
v -3.252058 2.032532 4.05439
v -3.252058 -1.915938 4.054392
v -2.896681 -1.920859 4.214202
v -3.155562 -2.155817 3.938906
v -2.891325 -2.168029 4.054392
v 2.891313 -2.168028 4.054389
v 2.896669 -1.920858 4.2142
v -2.896681 2.032569 4.214202
v 2.896669 2.03257 4.214198
v 3.252046 2.032534 4.054387
v 3.252046 -1.915936 4.054389
v -3.155562 2.168419 3.938905
v -3.252058 2.168503 3.619554
v -3.252071 2.168503 -3.619548
v 3.15555 2.16842 3.938902
v 2.891313 2.168504 4.054389
v -2.891325 2.168503 4.054391
v 3.15555 -2.155815 3.938903
v -3.155559 2.168418 -3.938899
v -2.891323 2.168503 -4.054385
v 2.891301 2.168504 -4.054387
v 3.155537 2.168419 -3.938903
v 3.388402 2.032569 -3.624494
v 3.388402 -1.920858 -3.624494
v 3.388399 2.03257 3.624492
v 3.388399 -1.920858 3.624494
v 3.252049 -2.168028 -3.61955
v 3.252047 -2.168028 3.619551
v 3.15555 -2.155815 3.938903
v 3.252046 -1.915936 4.054389
v 3.252046 2.032534 4.054387
v 3.252049 2.168504 -3.619551
v 3.252047 2.168504 3.61955
v 3.15555 2.16842 3.938902
vt 0.2819074 0.01302131
vt 0.3731756 0.127767
vt 0.3734128 0.01321073
vt 0.2816705 0.1275776
vt 0.2760887 0.01303281
vt 0.2758519 0.127542
vt 0.2816114 0.1345367
vt 0.3732059 0.1347262
vt 0.281877 0.006062046
vt 0.3734718 0.006251588
vt 0.3792315 0.01324625
vt 0.3789943 0.1277555
vt 0.2773788 0.1326605
vt 0.3774461 0.1328677
vt 0.3777045 0.008127704
vt 0.2776366 0.007920757
vt 0.1028739 0.4733399
vt 0.006274345 0.3523477
vt 0.006274226 0.4733398
vt 0.1028737 0.3523479
vt 0.1029425 0.3449971
vt 0.006205442 0.3449971
vt 0.0001417421 0.3524197
vt 0.0001415036 0.4732678
vt 0.1090063 0.4732679
vt 0.1090063 0.3524197
vt 0.1029428 0.4806906
vt 0.006205203 0.4806904
vt 0.001698496 0.3470136
vt 0.1074495 0.3470137
vt 0.1074499 0.4786741
vt 0.001698139 0.478674
vt 0.8399794 0.004132939
vt 0.8366122 0.01009143
vt 0.8366122 0.004132939
vt 0.8399794 0.01009143
vt 0.6962689 0.01009143
vt 0.6962689 0.004132939
vt 0.8366122 0.07906371
vt 0.6962689 0.07906371
vt 0.8399794 0.07906371
vt 0.6925756 0.07906371
vt 0.6925756 0.01009143
vt 0.6883295 0.01009143
vt 0.6925756 0.004132939
vt 0.6883295 0.004132939
vt 0.5457566 0.004132939
vt 0.5457566 0.01009143
vt 0.6883295 0.07906371
vt 0.5457566 0.07906371
vt 0.5417815 0.07906371
vt 0.5417815 0.01009143
vt 0.53834 0.01009143
vt 0.5417815 0.004132939
vt 0.53834 0.004132939
vt 0.3937278 0.004132939
vt 0.3937278 0.01009142
vt 0.53834 0.07906371
vt 0.3937278 0.07906371
vt 0.3904912 0.07906371
vt 0.3904912 0.01009142
vt 0.5417815 0.08502179
vt 0.5457566 0.08502179
vt 0.6883295 0.08502179
vt 0.3904912 0.08502178
vt 0.3937278 0.08502178
vt 0.53834 0.08502179
vt 0.3904912 0.00413294
vt 0.6925756 0.08502179
vt 0.6962689 0.08502179
vt 0.8366122 0.08502179
vt 0.8399794 0.08502179
vt 0.8438554 0.07906371
vt 0.8438554 0.01009143
vt 0.9916103 0.07906371
vt 0.9916103 0.01009143
vt 0.8438554 0.004132939
vt 0.9916103 0.004132939
vt 0.9953361 0.004132939
vt 0.9953361 0.01009143
vt 0.9953361 0.07906371
vt 0.8438554 0.08502179
vt 0.9916103 0.08502179
vt 0.9953361 0.08502179
vn 0.1211602 -0.9877807 0.09802756
vn -0.1211555 -0.9877813 -0.09802864
vn -0.1211597 -0.9877808 0.09802753
vn 0.1211556 -0.9877812 -0.09802891
vn 0.6333656 -0.7663691 0.107361
vn 0.633363 -0.7663694 -0.1073746
vn 0.1431696 -0.7928668 -0.5923383
vn -0.1431706 -0.7928659 -0.5923392
vn 0.143171 -0.7928662 0.5923387
vn -0.1431699 -0.7928663 0.5923388
vn -0.633365 -0.7663696 0.1073609
vn -0.6333631 -0.7663692 -0.1073743
vn 0.5028649 -0.7499465 -0.4297757
vn -0.5028656 -0.7499459 -0.4297759
vn -0.5028847 -0.7499358 0.4297712
vn 0.5028855 -0.7499352 0.4297714
vn -0.1158768 0.9889396 0.09257975
vn 0.1158726 0.9889399 -0.09258184
vn 0.1158766 0.9889396 0.0925797
vn -0.1158732 0.9889398 -0.0925814
vn -0.1028997 0.8781862 -0.4671194
vn 0.1029019 0.8781837 -0.4671237
vn 0.5168069 0.8525372 -0.07804479
vn 0.5168086 0.8525372 0.07803327
vn -0.5168084 0.8525374 0.07803256
vn -0.5168077 0.8525367 -0.07804529
vn -0.1029043 0.8781837 0.4671233
vn 0.1029053 0.8781822 0.4671258
vn 0.3967802 0.8548919 -0.3342533
vn -0.3967842 0.8548905 -0.334252
vn -0.3968061 0.8548796 0.3342539
vn 0.3968061 0.8548793 0.3342548
vn 0.5028649 -0.7499465 -0.4297757
vn 0.1990495 -0.2720177 -0.9414806
vn 0.1431696 -0.7928668 -0.5923383
vn 0.7174999 -0.2557042 -0.6479269
vn -0.199051 -0.2720164 -0.9414807
vn -0.1431706 -0.7928659 -0.5923392
vn 0.1864457 0.3963827 -0.8989542
vn -0.1864607 0.3963822 -0.8989514
vn 0.6887763 0.3699133 -0.6234993
vn -0.6887859 0.3699103 -0.6234906
vn -0.7175006 -0.2557031 -0.6479266
vn -0.9586957 -0.243325 -0.1472947
vn -0.5028656 -0.7499459 -0.4297759
vn -0.6333631 -0.7663692 -0.1073743
vn -0.633365 -0.7663696 0.1073609
vn -0.9586971 -0.2433209 0.1472917
vn -0.919302 0.3685313 -0.1380886
vn -0.9193034 0.3685287 0.1380861
vn -0.6887867 0.3698969 0.6234975
vn -0.7175054 -0.2556898 0.6479265
vn -0.1990557 -0.272015 0.94148
vn -0.5028847 -0.7499358 0.4297712
vn -0.1431699 -0.7928663 0.5923388
vn 0.143171 -0.7928662 0.5923387
vn 0.1990569 -0.2720147 0.9414799
vn -0.1864568 0.3963797 0.8989533
vn 0.1864565 0.3963778 0.8989542
vn 0.6887863 0.3698968 0.6234981
vn 0.717506 -0.2556894 0.647926
vn -0.3968061 0.8548796 0.3342539
vn -0.5168084 0.8525374 0.07803256
vn -0.5168077 0.8525367 -0.07804529
vn 0.3968061 0.8548793 0.3342548
vn 0.1029053 0.8781822 0.4671258
vn -0.1029043 0.8781837 0.4671233
vn 0.5028855 -0.7499352 0.4297714
vn -0.3967842 0.8548905 -0.334252
vn -0.1028997 0.8781862 -0.4671194
vn 0.1029019 0.8781837 -0.4671237
vn 0.3967802 0.8548919 -0.3342533
vn 0.9193018 0.368532 -0.1380881
vn 0.9586954 -0.2433252 -0.1472954
vn 0.9193037 0.3685287 0.1380847
vn 0.9586973 -0.2433206 0.147291
vn 0.633363 -0.7663694 -0.1073746
vn 0.6333656 -0.7663691 0.107361
vn 0.5028855 -0.7499352 0.4297714
vn 0.717506 -0.2556894 0.647926
vn 0.6887863 0.3698968 0.6234981
vn 0.5168069 0.8525372 -0.07804479
vn 0.5168086 0.8525372 0.07803327
vn 0.3968061 0.8548793 0.3342548
g Wind_East_0
f 3/3/3 2/2/2 1/1/1
f 4/4/4 1/1/1 2/2/2
f 1/1/1 4/4/4 5/5/5
f 6/6/6 5/5/5 4/4/4
f 4/4/4 2/2/2 7/7/7
f 8/8/8 7/7/7 2/2/2
f 1/1/1 9/9/9 3/3/3
f 10/10/10 3/3/3 9/9/9
f 3/3/3 11/11/11 2/2/2
f 12/12/12 2/2/2 11/11/11
f 4/4/4 7/7/7 13/13/13
f 6/6/6 4/4/4 13/13/13
f 2/2/2 12/12/12 14/14/14
f 8/8/8 2/2/2 14/14/14
f 3/3/3 10/10/10 15/15/15
f 11/11/11 3/3/3 15/15/15
f 1/1/1 5/5/5 16/16/16
f 9/9/9 1/1/1 16/16/16
f 19/19/19 18/18/18 17/17/17
f 20/20/20 17/17/17 18/18/18
f 20/20/20 18/18/18 21/21/21
f 22/22/22 21/21/21 18/18/18
f 18/18/18 19/19/19 23/23/23
f 24/24/24 23/23/23 19/19/19
f 17/17/17 20/20/20 25/25/25
f 26/26/26 25/25/25 20/20/20
f 17/17/17 27/27/27 19/19/19
f 28/28/28 19/19/19 27/27/27
f 18/18/18 23/23/23 29/29/29
f 22/22/22 18/18/18 29/29/29
f 20/20/20 21/21/21 30/30/30
f 26/26/26 20/20/20 30/30/30
f 17/17/17 25/25/25 31/31/31
f 27/27/27 17/17/17 31/31/31
f 19/19/19 28/28/28 32/32/32
f 24/24/24 19/19/19 32/32/32
f 35/35/35 34/34/34 33/33/33
f 36/36/36 33/33/33 34/34/34
f 34/34/34 35/35/35 37/37/37
f 38/38/38 37/37/37 35/35/35
f 34/34/34 37/37/37 39/39/39
f 40/40/40 39/39/39 37/37/37
f 39/39/39 41/41/41 34/34/34
f 36/36/36 34/34/34 41/41/41
f 40/40/40 37/37/37 42/42/42
f 43/43/43 42/42/42 37/37/37
f 43/43/43 44/44/44 42/42/42
f 43/43/43 45/45/45 44/44/44
f 43/43/43 37/37/37 45/45/45
f 38/38/38 45/45/45 37/37/37
f 46/46/46 44/44/44 45/45/45
f 46/46/46 47/47/47 44/44/44
f 48/48/48 44/44/44 47/47/47
f 44/44/44 48/48/48 49/49/49
f 49/49/49 42/42/42 44/44/44
f 50/50/50 49/49/49 48/48/48
f 50/50/50 48/48/48 51/51/51
f 52/52/52 51/51/51 48/48/48
f 52/52/52 53/53/53 51/51/51
f 52/52/52 54/54/54 53/53/53
f 52/52/52 48/48/48 54/54/54
f 47/47/47 54/54/54 48/48/48
f 55/55/55 53/53/53 54/54/54
f 55/55/55 56/56/56 53/53/53
f 57/57/57 53/53/53 56/56/56
f 58/58/58 51/51/51 53/53/53
f 53/53/53 57/57/57 58/58/58
f 59/59/59 58/58/58 57/57/57
f 59/59/59 57/57/57 60/60/60
f 61/61/61 60/60/60 57/57/57
f 51/51/51 62/62/62 50/50/50
f 51/51/51 58/58/58 62/62/62
f 63/63/63 50/50/50 62/62/62
f 49/49/49 50/50/50 64/64/64
f 63/63/63 64/64/64 50/50/50
f 60/60/60 65/65/65 59/59/59
f 66/66/66 59/59/59 65/65/65
f 58/58/58 59/59/59 67/67/67
f 66/66/66 67/67/67 59/59/59
f 67/67/67 62/62/62 58/58/58
f 61/61/61 57/57/57 68/68/68
f 56/56/56 68/68/68 57/57/57
f 64/64/64 69/69/69 49/49/49
f 42/42/42 49/49/49 69/69/69
f 42/42/42 69/69/69 40/40/40
f 70/70/70 40/40/40 69/69/69
f 40/40/40 70/70/70 39/39/39
f 71/71/71 39/39/39 70/70/70
f 71/71/71 72/72/72 39/39/39
f 41/41/41 39/39/39 72/72/72
f 41/41/41 72/72/72 73/73/73
f 73/73/73 74/74/74 41/41/41
f 36/36/36 41/41/41 74/74/74
f 73/73/73 75/75/75 74/74/74
f 76/76/76 74/74/74 75/75/75
f 74/74/74 76/76/76 77/77/77
f 78/78/78 77/77/77 76/76/76
f 78/78/78 76/76/76 79/79/79
f 80/80/80 79/79/79 76/76/76
f 75/75/75 81/81/81 76/76/76
f 80/80/80 76/76/76 81/81/81
f 82/82/82 73/73/73 72/72/72
f 75/75/75 73/73/73 83/83/83
f 82/82/82 83/83/83 73/73/73
f 36/36/36 74/74/74 33/33/33
f 77/77/77 33/33/33 74/74/74
f 81/81/81 75/75/75 84/84/84
f 83/83/83 84/84/84 75/75/75
